<svg width="626" height="78" viewBox="0 0 626 78" fill="none" xmlns="http://www.w3.org/2000/svg">
<path d="M23.4844 74.3906C21.8594 75.4219 20.0312 75.9375 18 75.9375C16 75.9375 14.2031 75.4375 12.6094 74.4375C11.0156 75.4375 9.53125 75.9375 8.15625 75.9375C6.8125 75.9375 5.70312 75.8125 4.82812 75.5625C3.95312 75.3438 3.1875 75.0312 2.53125 74.625C1.1875 73.8125 0.515625 72.7969 0.515625 71.5781C0.515625 70.9531 0.6875 70.4062 1.03125 69.9375C1.71875 70.4688 2.59375 70.7344 3.65625 70.7344C6.4375 70.7344 8.35938 69.5469 9.42188 67.1719V44.25C9.42188 42.8125 9.125 41.75 8.53125 41.0625C7.59375 39.9062 5.98438 38.7656 3.70312 37.6406C5.82812 36.6719 7.20312 35.8125 7.82812 35.0625C8.89062 33.8438 9.42188 32.4688 9.42188 30.9375V11.1562C8.35938 8.75 6.4375 7.54688 3.65625 7.54688C2.59375 7.54688 1.71875 7.8125 1.03125 8.34375C0.6875 7.875 0.515625 7.34375 0.515625 6.75C0.515625 6.125 0.6875 5.54687 1.03125 5.01562C1.40625 4.48438 1.90625 4.03125 2.53125 3.65625C3.96875 2.78125 5.60938 2.34375 7.45312 2.34375C9.32812 2.34375 11.0469 2.85938 12.6094 3.89062C14.2344 2.85938 16.0312 2.34375 18 2.34375C20 2.34375 21.7969 2.84375 23.3906 3.84375C26.4844 2.53125 29.9688 1.875 33.8438 1.875C37.75 1.875 41.125 2.32813 43.9688 3.23438C46.8125 4.14062 49.375 5.40625 51.6562 7.03125C56.4062 10.4062 59.5469 14.8594 61.0781 20.3906C61.7031 22.5469 63.1875 24.3125 65.5312 25.6875C63.125 27.0312 61.5156 29.0625 60.7031 31.7812C59.8906 34.5 58.5312 37.0312 56.625 39.375C54.75 41.6875 52.5938 43.625 50.1562 45.1875C45.1875 48.375 39.9062 49.9688 34.3125 49.9688C31.875 49.9688 29.3281 49.6562 26.6719 49.0312V66.9375C27.5156 68.75 29.25 69.9375 31.875 70.5C32.5625 70.6562 33.3281 70.7344 34.1719 70.7344C35.0156 70.7344 35.7812 70.4688 36.4688 69.9375C36.8125 70.4062 36.9844 70.9531 36.9844 71.5781C36.9844 72.1719 36.75 72.7344 36.2812 73.2656C35.8438 73.7969 35.25 74.25 34.5 74.625C32.8438 75.5 31.0312 75.9375 29.0625 75.9375C27.0938 75.9375 25.2344 75.4219 23.4844 74.3906ZM26.6719 36.7969C26.6719 38.9219 27.4531 40.625 29.0156 41.9062C30.4531 43.0938 32.2969 43.6875 34.5469 43.6875C37.9844 43.6875 40.4688 42.375 42 39.75C42.5312 38.8438 42.7969 37.7344 42.7969 36.4219V15.2344C42.7969 12.9844 41.9375 11.2187 40.2188 9.9375C38.6562 8.75 37.0938 8.15625 35.5312 8.15625C34 8.15625 32.7344 8.3125 31.7344 8.625C30.7656 8.90625 29.9062 9.34375 29.1562 9.9375C27.5 11.25 26.6719 13.0781 26.6719 15.4219V36.7969ZM45.8438 41.625C46.5625 41.5 47.2969 40.625 48.0469 39C48.8281 37.375 49.4062 35.4688 49.7812 33.2812C50.1875 31.0625 50.6875 29.4375 51.2812 28.4062C51.875 27.3438 52.8281 26.5938 54.1406 26.1562C51.9844 25.4375 50.625 23.5312 50.0625 20.4375C49.5 17.3125 48.8281 15.0156 48.0469 13.5469C47.2969 12.0781 46.5625 11.2813 45.8438 11.1562C47 13.75 47.5781 18.75 47.5781 26.1562C47.5781 31.0938 47.3281 34.8125 46.8281 37.3125C46.3281 39.8125 46 41.25 45.8438 41.625ZM13.9219 62.5781C15.4844 61.9844 16.3438 59.9375 16.5 56.4375C16.6875 52.9375 16.7812 48.0938 16.7812 41.9062C16.7812 35.7188 16.7656 31.6094 16.7344 29.5781C16.7344 27.5156 16.7188 25.8594 16.6875 24.6094C16.5938 20.9219 16.2344 18.7031 15.6094 17.9531C15.0156 17.1719 14.4531 16.6562 13.9219 16.4062C13.9219 27.2812 13.7344 33.4688 13.3594 34.9688C12.9219 36.2188 11.8594 37.1094 10.1719 37.6406C12.0469 38.2969 13.1094 39.0938 13.3594 40.0312C13.7344 41.5312 13.9219 47.0156 13.9219 56.4844V62.5781ZM170.406 59.7656C170.968 61.1406 172.109 62.4531 173.827 63.7031C172.734 64.1406 171.359 65.1719 169.702 66.7969C168.077 68.4219 166.249 69.875 164.218 71.1562C162.187 72.4375 160.171 73.4688 158.171 74.25C154.546 75.6875 150.624 76.4062 146.406 76.4062C142.218 76.4062 138.406 75.9062 134.968 74.9062C131.562 73.9062 128.734 72.5469 126.484 70.8281C122.077 67.4219 119.874 62.8906 119.874 57.2344V44.25C119.874 42.8125 119.577 41.75 118.984 41.0625C118.046 39.9062 116.437 38.7656 114.156 37.6406C116.281 36.6719 117.656 35.8125 118.281 35.0625C119.343 33.8438 119.874 32.4688 119.874 30.9375V11.1562C118.812 8.75 116.89 7.54688 114.109 7.54688C113.046 7.54688 112.171 7.8125 111.484 8.34375C111.14 7.875 110.968 7.34375 110.968 6.75C110.968 6.125 111.14 5.54687 111.484 5.01562C111.859 4.48438 112.359 4.03125 112.984 3.65625C114.421 2.78125 116.062 2.34375 117.906 2.34375C119.781 2.34375 121.499 2.85938 123.062 3.89062C124.687 2.85938 126.499 2.34375 128.499 2.34375C130.499 2.34375 132.312 2.85938 133.937 3.89062C135.499 2.85938 136.968 2.34375 138.343 2.34375C139.718 2.34375 140.843 2.46875 141.718 2.71875C142.593 2.9375 143.359 3.25 144.015 3.65625C145.359 4.46875 146.031 5.48438 146.031 6.70312C146.031 7.32812 145.859 7.875 145.515 8.34375C144.827 7.8125 143.952 7.54688 142.89 7.54688C140.109 7.54688 138.187 8.75 137.124 11.1562V30.9375C137.124 32.4688 137.452 33.6094 138.109 34.3594C139.14 35.5781 140.718 36.6719 142.843 37.6406C140.562 38.7656 139.109 39.6875 138.484 40.4062C137.577 41.5312 137.124 42.8125 137.124 44.25V57.3281C137.124 61.1094 138.546 64.2188 141.39 66.6562C144.015 68.875 146.999 69.9844 150.343 69.9844C153.843 69.9844 156.952 68.9062 159.671 66.75C162.452 64.5625 163.843 61.9062 163.843 58.7812V43.8281C163.843 42.4531 163.546 41.4375 162.952 40.7812C162.046 39.8125 160.437 38.7656 158.124 37.6406C160.281 36.5781 161.671 35.7188 162.296 35.0625C163.327 33.9688 163.843 32.75 163.843 31.4062V10.5469C162.499 8.54687 160.859 7.54688 158.921 7.54688C156.984 7.54688 155.562 7.8125 154.656 8.34375C154.312 7.78125 154.14 7.01563 154.14 6.04688C154.14 5.04688 154.624 4.1875 155.593 3.46875C156.562 2.71875 157.827 2.34375 159.39 2.34375C160.952 2.34375 162.343 2.75 163.562 3.5625C164.656 2.75 165.906 2.34375 167.312 2.34375C168.749 2.34375 170.015 2.76562 171.109 3.60938C172.327 2.76562 173.671 2.34375 175.14 2.34375C176.609 2.34375 177.781 2.73437 178.656 3.51562C179.562 4.26562 180.015 5.14063 180.015 6.14062C180.015 7.14062 179.859 7.875 179.546 8.34375C178.64 7.8125 177.187 7.54688 175.187 7.54688C173.218 7.54688 171.624 8.54687 170.406 10.5469V31.4062C170.406 32.7812 170.702 33.7812 171.296 34.4062C172.234 35.375 173.999 36.4531 176.593 37.6406C173.843 38.9844 172.202 39.9219 171.671 40.4531C170.827 41.2969 170.406 42.4219 170.406 43.8281V59.7656ZM126.812 62.5781C127.093 60.8906 127.234 55.4844 127.234 46.3594C127.234 37.2031 127.218 31.6094 127.187 29.5781C127.187 27.5156 127.171 25.8594 127.14 24.6094C127.046 20.9219 126.687 18.7031 126.062 17.9531C125.468 17.1719 124.906 16.6562 124.374 16.4062C124.374 27.2812 124.187 33.4688 123.812 34.9688C123.374 36.2188 122.312 37.1094 120.624 37.6406C122.499 38.2969 123.562 39.0938 123.812 40.0312C124.187 41.5312 124.374 44.7656 124.374 49.7344C124.374 54.7031 124.437 57.6406 124.562 58.5469C124.718 59.4531 124.921 60.1875 125.171 60.75C125.577 61.75 126.124 62.3594 126.812 62.5781ZM242.092 73.1719C239.592 75.6719 237.217 76.9219 234.967 76.9219C233.53 76.9219 232.561 76.3906 232.061 75.3281C232.78 74.4531 233.139 73.1406 233.139 71.3906V70.6875C233.139 70.5 233.124 70.3281 233.092 70.1719C231.53 68.7656 230.749 67.1094 230.749 65.2031C230.749 63.2656 231.655 61.2969 233.467 59.2969C232.936 58.2344 232.671 57.1094 232.671 55.9219C232.671 54.7031 232.842 53.5781 233.186 52.5469C233.561 51.4844 234.061 50.5625 234.686 49.7812C235.999 48.0625 237.28 47.2031 238.53 47.2031C239.811 47.2031 240.717 47.7031 241.249 48.7031C240.124 49.8906 239.561 51.75 239.561 54.2812C239.561 56.8125 239.921 59.0156 240.639 60.8906C241.389 62.7656 242.436 64.375 243.78 65.7188C246.655 68.6562 250.327 70.125 254.796 70.125C257.796 70.125 260.342 69.2656 262.436 67.5469C264.686 65.7031 265.811 63.1875 265.811 60C265.811 57.75 265.28 55.9219 264.217 54.5156C262.561 52.3281 259.967 50.0156 256.436 47.5781C253.717 45.6719 251.546 44.7188 249.921 44.7188C248.264 44.7188 246.436 45.3906 244.436 46.7344C244.967 45.1406 245.233 43.6562 245.233 42.2812C245.233 41.9688 244.936 41.5625 244.342 41.0625L242.608 39.5156C237.139 34.4844 233.905 29.8125 232.905 25.5C232.561 24 232.389 22.125 232.389 19.875C232.389 17.5938 232.936 15.2969 234.03 12.9844C235.155 10.6406 236.686 8.65625 238.624 7.03125C242.655 3.59375 247.78 1.875 253.999 1.875C257.78 1.875 261.249 2.48438 264.405 3.70312C265.749 4.23437 267.28 4.5 268.999 4.5C269.717 4.5 270.358 4.46875 270.921 4.40625C271.514 4.3125 272.03 3.98438 272.467 3.42188C272.874 2.82812 273.077 2.29688 273.077 1.82812C273.077 1.35938 273.014 0.96875 272.889 0.65625C273.108 0.5625 273.405 0.515625 273.78 0.515625C274.186 0.515625 274.624 0.65625 275.092 0.9375C275.561 1.1875 275.983 1.54688 276.358 2.01562C277.202 3.07813 277.624 4.28125 277.624 5.625C277.624 6.9375 277.249 7.9375 276.499 8.625C277.561 9.5625 278.092 11.0156 278.092 12.9844C278.092 14.9219 277.436 16.5469 276.124 17.8594C276.374 18.7031 276.499 19.4688 276.499 20.1562C276.499 20.8125 276.374 21.4531 276.124 22.0781C275.905 22.6719 275.592 23.1875 275.186 23.625C274.28 24.5938 273.421 25.0781 272.608 25.0781C271.327 25.0781 270.249 24.8594 269.374 24.4219C269.905 23.1719 270.171 21.8281 270.171 20.3906C270.171 18.9531 269.842 17.4844 269.186 15.9844C268.561 14.4531 267.671 13.125 266.514 12C264.077 9.6875 260.889 8.53125 256.952 8.53125C254.452 8.53125 252.405 9.29687 250.811 10.8281C249.311 12.2656 248.561 14 248.561 16.0312C248.561 17.5625 248.936 18.8438 249.686 19.875C250.999 21.6562 253.077 23.5 255.921 25.4062L258.171 26.9062C259.421 27.6875 260.264 28.0781 260.702 28.0781C261.139 28.0781 261.577 28.0312 262.014 27.9375C262.452 27.8438 262.936 27.7188 263.467 27.5625C264.592 27.1875 265.686 26.6562 266.749 25.9688L266.139 28.5938C265.952 29.4688 265.858 30.1094 265.858 30.5156C265.858 31.1719 266.186 31.7656 266.842 32.2969C272.686 37.3594 276.592 41.5938 278.561 45C280.28 47.9688 281.139 51.1719 281.139 54.6094C281.139 58.0469 280.577 61 279.452 63.4688C278.327 65.9375 276.686 68.125 274.53 70.0312C269.78 74.2812 263.608 76.4062 256.014 76.4062C250.671 76.4062 246.03 75.3281 242.092 73.1719ZM238.905 16.4062C237.717 16.9062 237.124 18.2031 237.124 20.2969C237.124 24.5781 239.983 29.2812 245.702 34.4062L248.514 36.9375C249.483 37.8125 249.905 38.4844 249.78 38.9531C249.686 39.4219 249.592 39.7969 249.499 40.0781C249.436 40.3594 249.358 40.625 249.264 40.875C249.171 41.125 249.108 41.3125 249.077 41.4375C250.171 40.7812 251.061 40.4531 251.749 40.4531C253.124 40.4531 254.421 40.8281 255.639 41.5781C261.671 45.3281 265.764 48.6719 267.921 51.6094C269.483 53.7656 270.296 56.4531 270.358 59.6719C270.358 60.8281 270.28 61.7969 270.124 62.5781C271.78 61.5156 272.608 59.8281 272.608 57.5156C272.608 55.2656 272.296 53.5312 271.671 52.3125C271.077 51.0938 270.374 50.0156 269.561 49.0781C268.749 48.1094 267.686 47.0625 266.374 45.9375C265.092 44.8125 263.499 43.5938 261.592 42.2812L254.936 37.7344C249.467 34.1406 245.311 30.3438 242.467 26.3438C239.967 22.8125 238.78 19.5 238.905 16.4062ZM391.123 59.7656C391.686 61.1406 392.826 62.4531 394.545 63.7031C393.451 64.1406 392.076 65.1719 390.42 66.7969C388.795 68.4219 386.967 69.875 384.936 71.1562C382.904 72.4375 380.889 73.4688 378.889 74.25C375.264 75.6875 371.342 76.4062 367.123 76.4062C362.936 76.4062 359.123 75.9062 355.686 74.9062C352.279 73.9062 349.451 72.5469 347.201 70.8281C342.795 67.4219 340.592 62.8906 340.592 57.2344V44.25C340.592 42.8125 340.295 41.75 339.701 41.0625C338.764 39.9062 337.154 38.7656 334.873 37.6406C336.998 36.6719 338.373 35.8125 338.998 35.0625C340.061 33.8438 340.592 32.4688 340.592 30.9375V11.1562C339.529 8.75 337.607 7.54688 334.826 7.54688C333.764 7.54688 332.889 7.8125 332.201 8.34375C331.857 7.875 331.686 7.34375 331.686 6.75C331.686 6.125 331.857 5.54687 332.201 5.01562C332.576 4.48438 333.076 4.03125 333.701 3.65625C335.139 2.78125 336.779 2.34375 338.623 2.34375C340.498 2.34375 342.217 2.85938 343.779 3.89062C345.404 2.85938 347.217 2.34375 349.217 2.34375C351.217 2.34375 353.029 2.85938 354.654 3.89062C356.217 2.85938 357.686 2.34375 359.061 2.34375C360.436 2.34375 361.561 2.46875 362.436 2.71875C363.311 2.9375 364.076 3.25 364.732 3.65625C366.076 4.46875 366.748 5.48438 366.748 6.70312C366.748 7.32812 366.576 7.875 366.232 8.34375C365.545 7.8125 364.67 7.54688 363.607 7.54688C360.826 7.54688 358.904 8.75 357.842 11.1562V30.9375C357.842 32.4688 358.17 33.6094 358.826 34.3594C359.857 35.5781 361.436 36.6719 363.561 37.6406C361.279 38.7656 359.826 39.6875 359.201 40.4062C358.295 41.5312 357.842 42.8125 357.842 44.25V57.3281C357.842 61.1094 359.264 64.2188 362.107 66.6562C364.732 68.875 367.717 69.9844 371.061 69.9844C374.561 69.9844 377.67 68.9062 380.389 66.75C383.17 64.5625 384.561 61.9062 384.561 58.7812V43.8281C384.561 42.4531 384.264 41.4375 383.67 40.7812C382.764 39.8125 381.154 38.7656 378.842 37.6406C380.998 36.5781 382.389 35.7188 383.014 35.0625C384.045 33.9688 384.561 32.75 384.561 31.4062V10.5469C383.217 8.54687 381.576 7.54688 379.639 7.54688C377.701 7.54688 376.279 7.8125 375.373 8.34375C375.029 7.78125 374.857 7.01563 374.857 6.04688C374.857 5.04688 375.342 4.1875 376.311 3.46875C377.279 2.71875 378.545 2.34375 380.107 2.34375C381.67 2.34375 383.061 2.75 384.279 3.5625C385.373 2.75 386.623 2.34375 388.029 2.34375C389.467 2.34375 390.732 2.76562 391.826 3.60938C393.045 2.76562 394.389 2.34375 395.857 2.34375C397.326 2.34375 398.498 2.73437 399.373 3.51562C400.279 4.26562 400.732 5.14063 400.732 6.14062C400.732 7.14062 400.576 7.875 400.264 8.34375C399.357 7.8125 397.904 7.54688 395.904 7.54688C393.936 7.54688 392.342 8.54687 391.123 10.5469V31.4062C391.123 32.7812 391.42 33.7812 392.014 34.4062C392.951 35.375 394.717 36.4531 397.311 37.6406C394.561 38.9844 392.92 39.9219 392.389 40.4531C391.545 41.2969 391.123 42.4219 391.123 43.8281V59.7656ZM347.529 62.5781C347.811 60.8906 347.951 55.4844 347.951 46.3594C347.951 37.2031 347.936 31.6094 347.904 29.5781C347.904 27.5156 347.889 25.8594 347.857 24.6094C347.764 20.9219 347.404 18.7031 346.779 17.9531C346.186 17.1719 345.623 16.6562 345.092 16.4062C345.092 27.2812 344.904 33.4688 344.529 34.9688C344.092 36.2188 343.029 37.1094 341.342 37.6406C343.217 38.2969 344.279 39.0938 344.529 40.0312C344.904 41.5312 345.092 44.7656 345.092 49.7344C345.092 54.7031 345.154 57.6406 345.279 58.5469C345.436 59.4531 345.639 60.1875 345.889 60.75C346.295 61.75 346.842 62.3594 347.529 62.5781ZM467.404 75.9375C465.341 75.9375 463.513 75.4375 461.919 74.4375C460.326 75.4375 458.841 75.9375 457.466 75.9375C456.122 75.9375 455.013 75.8125 454.138 75.5625C453.263 75.3438 452.497 75.0312 451.841 74.625C450.497 73.8125 449.826 72.7969 449.826 71.5781C449.826 70.9531 449.997 70.4062 450.341 69.9375C451.029 70.4688 451.904 70.7344 452.966 70.7344C455.747 70.7344 457.669 69.5469 458.732 67.1719V44.25C458.732 42.8125 458.435 41.75 457.841 41.0625C456.904 39.9062 455.294 38.7656 453.013 37.6406C455.138 36.6719 456.513 35.8125 457.138 35.0625C458.201 33.8438 458.732 32.4688 458.732 30.9375V11.1562C457.669 8.75 455.747 7.54688 452.966 7.54688C451.904 7.54688 451.029 7.8125 450.341 8.34375C449.997 7.875 449.826 7.34375 449.826 6.75C449.826 6.125 449.997 5.54687 450.341 5.01562C450.716 4.48438 451.216 4.03125 451.841 3.65625C453.279 2.78125 454.919 2.34375 456.763 2.34375C458.638 2.34375 460.357 2.85938 461.919 3.89062C463.544 2.85938 465.357 2.34375 467.357 2.34375C469.357 2.34375 471.169 2.85938 472.794 3.89062C474.544 2.85938 476.138 2.34375 477.576 2.34375C479.013 2.34375 480.169 2.46875 481.044 2.71875C481.919 2.9375 482.685 3.25 483.341 3.65625C484.685 4.46875 485.357 5.48438 485.357 6.70312C485.357 7.32812 485.185 7.875 484.841 8.34375C484.154 7.8125 483.232 7.54688 482.076 7.54688C480.919 7.54688 479.747 7.85938 478.56 8.48438C477.404 9.07813 476.544 9.98438 475.982 11.2031V30.9375C475.982 32.4688 476.31 33.6094 476.966 34.3594C477.997 35.5781 479.576 36.6719 481.701 37.6406C479.419 38.7656 477.966 39.6875 477.341 40.4062C476.435 41.5312 475.982 42.8125 475.982 44.25V64.7344C478.044 68.0156 480.622 69.6562 483.716 69.6562C491.372 69.6562 496.294 66.4062 498.482 59.9062C499.451 57.0312 499.935 54.4062 499.935 52.0312C499.935 49.625 499.607 48.0156 498.951 47.2031C499.669 46.6094 500.404 46.3125 501.154 46.3125C501.935 46.3125 502.654 46.4688 503.31 46.7812C503.966 47.0938 504.56 47.5625 505.091 48.1875C506.185 49.4688 506.732 50.9844 506.732 52.7344C506.732 54.4844 506.591 55.8281 506.31 56.7656C507.747 57.9531 508.466 59.625 508.466 61.7812C508.466 63.9375 507.857 65.6875 506.638 67.0312C507.669 68.3438 508.185 69.5312 508.185 70.5938C508.185 71.6562 508.029 72.5781 507.716 73.3594C507.435 74.1094 507.029 74.7812 506.497 75.375C505.31 76.5938 503.888 77.2031 502.232 77.2031C501.419 77.2031 500.669 77.0312 499.982 76.6875C500.107 76 500.169 75.3125 500.169 74.625C500.169 73.1875 499.513 72.4688 498.201 72.4688C497.232 72.4688 495.888 72.8594 494.169 73.6406C490.857 75.1719 487.076 75.9375 482.826 75.9375C478.607 75.9375 475.31 75.3906 472.935 74.2969C471.31 75.3906 469.466 75.9375 467.404 75.9375ZM463.232 62.5781C464.794 61.9844 465.654 59.9375 465.81 56.4375C465.997 52.9375 466.091 48.0938 466.091 41.9062C466.091 35.7188 466.076 31.6094 466.044 29.5781C466.044 27.5156 466.029 25.8594 465.997 24.6094C465.904 20.9219 465.544 18.7031 464.919 17.9531C464.326 17.1719 463.763 16.6562 463.232 16.4062C463.232 27.2812 463.044 33.4688 462.669 34.9688C462.232 36.2188 461.169 37.1094 459.482 37.6406C461.357 38.2969 462.419 39.0938 462.669 40.0312C463.044 41.5312 463.232 47.0156 463.232 56.4844V62.5781ZM559.903 74.6719C558.747 75.5156 557.419 75.9375 555.919 75.9375C554.45 75.9375 553.278 75.5625 552.403 74.8125C551.497 74.0312 551.044 73.1406 551.044 72.1406C551.044 71.1406 551.2 70.4062 551.513 69.9375C552.419 70.4688 553.528 70.7344 554.841 70.7344C556.184 70.7344 557.184 70.5625 557.841 70.2188C558.528 69.8438 559.184 69.3438 559.809 68.7188L566.466 48.9844L567.403 45.75C567.684 44.7812 567.825 43.8906 567.825 43.0781C567.825 40.2344 566.481 38.4219 563.794 37.6406C566.263 36.7031 567.997 35.6875 568.997 34.5938C570.559 32.875 571.794 30.6094 572.7 27.7969L577.856 10.5C576.856 9.15625 575.669 8.48438 574.294 8.48438C572.919 8.48438 571.638 8.78125 570.45 9.375C570.138 8.8125 569.981 8.1875 569.981 7.5C569.981 6.78125 570.122 6.10937 570.403 5.48438C570.716 4.85938 571.138 4.3125 571.669 3.84375C572.856 2.84375 574.544 2.34375 576.731 2.34375C578.919 2.34375 580.778 3 582.309 4.3125C583.872 3 585.809 2.34375 588.122 2.34375C590.466 2.34375 592.325 2.96875 593.7 4.21875C595.7 2.96875 597.731 2.34375 599.794 2.34375C601.856 2.34375 603.45 2.73437 604.575 3.51562C605.731 4.29688 606.309 5.35937 606.309 6.70312C606.309 7.32812 606.122 7.875 605.747 8.34375C605.028 7.8125 604.184 7.54688 603.216 7.54688C601.122 7.54688 599.763 8.96875 599.138 11.8125L605.138 30.9844C605.888 33.3906 607.763 35.2656 610.763 36.6094C611.606 36.9844 612.466 37.3281 613.341 37.6406C610.216 38.6719 608.653 40.2188 608.653 42.2812C608.653 43.0625 608.778 43.75 609.028 44.3438L617.981 68.3438C619.356 69.7812 620.747 70.5 622.153 70.5C623.559 70.5 624.653 70.2344 625.434 69.7031C625.778 69.9531 625.95 70.4219 625.95 71.1094C625.95 71.7969 625.841 72.4375 625.622 73.0312C625.403 73.5938 625.059 74.0938 624.591 74.5312C623.591 75.4688 622.122 75.9375 620.184 75.9375C618.247 75.9375 616.559 75.4062 615.122 74.3438C613.497 75.4062 611.653 75.9375 609.591 75.9375C607.559 75.9375 605.809 75.4219 604.341 74.3906C602.934 75.4219 601.278 75.9375 599.372 75.9375C597.466 75.9375 595.888 75.5469 594.638 74.7656C593.388 73.9531 592.731 72.8125 592.669 71.3438C592.669 70.4688 592.841 69.9219 593.184 69.7031C594.028 70.2344 594.888 70.5 595.763 70.5C597.606 70.5 598.903 70.125 599.653 69.375L596.091 57.4219H570.731L567.638 67.7812C568.919 69.75 570.466 70.7344 572.278 70.7344C574.122 70.7344 575.497 70.4688 576.403 69.9375C576.747 70.5 576.919 71.2812 576.919 72.2812C576.919 73.25 576.434 74.1094 575.466 74.8594C574.497 75.5781 573.247 75.9375 571.716 75.9375C570.184 75.9375 568.778 75.5469 567.497 74.7656C566.372 75.5469 565.075 75.9375 563.606 75.9375C562.169 75.9375 560.934 75.5156 559.903 74.6719ZM594.169 51.0938L583.294 14.9531L572.606 51.0938H594.169ZM603.122 62.5781C603.684 62.5781 603.966 61.9531 603.966 60.7031C603.966 58.5156 603.638 56.3906 602.981 54.3281L601.2 48.8438C599.95 44.7188 599.325 42.125 599.325 41.0625C599.294 39.3125 600.059 38.1562 601.622 37.5938C599.466 37.1562 598.153 36.4844 597.684 35.5781C597.466 35.2031 597.278 34.9062 597.122 34.6875C596.997 34.4688 596.856 34.2188 596.7 33.9375C596.575 33.625 596.419 33.2344 596.231 32.7656C596.044 32.2969 595.794 31.625 595.481 30.75L592.575 21.9844C591.888 19.7969 590.872 18.1406 589.528 17.0156C589.122 16.6719 588.747 16.4688 588.403 16.4062C590.497 23.9688 591.872 28.8125 592.528 30.9375C597.059 44.875 599.778 53.1406 600.684 55.7344L603.122 62.5781ZM616.95 66.7969L617.044 67.0781L616.95 66.7969Z" fill="white"/>
</svg>
