<svg width="944" height="962" viewBox="0 0 944 962" fill="none" xmlns="http://www.w3.org/2000/svg">
<path d="M536.5 413C534.333 400.667 540.2 370.8 563 366C591.5 360 590.752 365.971 606 357.5C619.5 350 625.833 338.167 629.5 331.5C631.833 339.667 634.95 360.734 623.5 376C610 394 584.5 388.5 580.5 389.5M580.5 389.5C580.443 389.514 580.559 389.492 580.5 389.5ZM580.5 389.5C577 390 553 391.5 535 416" stroke="white" stroke-width="7"/>
<path d="M422.371 545.043C424.207 557.43 417.545 587.129 394.625 591.318C365.975 596.555 366.882 590.606 351.413 598.667C337.718 605.803 331.07 617.463 327.227 624.03C325.113 615.803 322.56 594.661 334.414 579.706C348.39 562.073 373.734 568.252 377.759 567.359M377.759 567.359C377.816 567.347 377.7 567.366 377.759 567.359ZM377.759 567.359C381.271 566.953 404.289 566.568 422.938 542.557" stroke="white" stroke-width="7"/>
<path d="M413.501 423.386C401.163 425.529 371.308 419.604 366.553 396.795C360.608 368.283 366.578 369.042 358.136 353.778C350.663 340.264 338.842 333.907 332.182 330.228C340.353 327.91 361.426 324.835 376.67 336.314C394.644 349.849 389.094 375.339 390.087 379.341M390.087 379.341C390.101 379.397 390.078 379.282 390.087 379.341ZM390.087 379.341C390.58 382.842 391.535 405.843 416 423.891" stroke="white" stroke-width="7"/>
<path d="M545.506 536.556C557.81 534.229 587.751 539.709 592.846 562.445C599.214 590.865 593.234 590.194 601.902 605.331C609.576 618.733 621.491 624.912 628.204 628.492C620.068 630.931 599.044 634.32 583.63 623.069C565.457 609.803 570.626 584.234 569.574 580.248M569.574 580.248C569.559 580.191 569.583 580.306 569.574 580.248ZM569.574 580.248C569.029 576.754 567.731 553.769 543 536.088" stroke="white" stroke-width="7"/>
<g filter="url(#filter0_d_4_257)">
<circle cx="479" cy="480" r="83.5" stroke="white" stroke-width="5" shape-rendering="crispEdges"/>
</g>
<g filter="url(#filter1_d_4_257)">
<path d="M544.5 479.5C544.5 515.388 515.185 544.5 479 544.5C442.815 544.5 413.5 515.388 413.5 479.5C413.5 443.612 442.815 414.5 479 414.5C515.185 414.5 544.5 443.612 544.5 479.5Z" stroke="white" stroke-width="3" shape-rendering="crispEdges"/>
</g>
<path d="M493 459C483 454.2 478.667 440.667 479 434.5C478.5 440.833 475.2 454.6 466 459C456.8 463.4 444.5 459.167 439.5 456.5C444.167 461.5 453.9 469.6 455.5 478C457.1 486.4 446.167 498.833 440.5 502C447.5 500.667 461.1 497.8 467.5 501C473.9 504.2 478.167 519.667 479 526C478.667 519.167 482.2 505 493 501C503.8 497 514 499.5 518 502C513 497.333 502.8 486 502 478C501.2 470 512.333 460.333 518 456.5C513 459.333 503 463.8 493 459Z" fill="white" stroke="white"/>
<circle cx="455.5" cy="437.5" r="7.5" fill="white"/>
<circle cx="503.5" cy="521.5" r="7.5" fill="white"/>
<circle cx="527.5" cy="479.5" r="7.5" fill="white"/>
<circle cx="430.5" cy="479.5" r="7.5" fill="white"/>
<circle cx="455.5" cy="521.5" r="7.5" fill="white"/>
<path d="M511 437.5C511 441.642 507.642 445 503.5 445C499.358 445 496 441.642 496 437.5C496 433.358 499.358 430 503.5 430C507.642 430 511 433.358 511 437.5Z" fill="white"/>
<path d="M757 458.5C754 408 744.272 392 740 378.5C730 346.9 703.5 313 693.5 300C692.667 297.167 691.4 291.9 691 283.5C690.6 275.1 696.333 263.5 699 259.5C696 261 688.9 264.4 680.5 266C672.1 267.6 661 265.167 658 264.5C645.667 253.833 616.3 231.4 585.5 221C547 208 545.5 206.5 499 201.5" stroke="white" stroke-width="6"/>
<path d="M200.5 499C204.187 549.454 211.632 568.832 216.087 582.273C226.517 613.734 253.476 647.27 263.652 660.133C264.523 662.955 265.862 668.204 266.376 676.597C266.89 684.991 261.315 696.668 258.703 700.704C261.683 699.163 268.736 695.667 277.113 693.953C285.491 692.239 296.623 694.521 299.632 695.146C312.109 705.644 341.778 727.676 372.717 737.655C411.39 750.13 412.436 753.133 459 757.5" stroke="white" stroke-width="6"/>
<path d="M455.5 738C416 739 380.5 721.5 374 718.5C349.773 707.318 319.5 691.5 315.5 680C314.755 677.142 313.139 671.908 313 663.5C312.861 655.092 315.21 646.415 318 642.5C314.955 643.906 301.5 646.5 293 645.5C284.508 644.501 275 638.5 273 635C261.004 623.955 238.5 576.5 237 574.5C236.098 573.297 218.5 539 222 502" stroke="white" stroke-width="6"/>
<path d="M503 221C542.498 219.941 578.797 238.596 585.301 241.587C609.545 252.732 639.841 268.506 643.858 280C644.607 282.857 646.232 288.088 646.383 296.496C646.534 304.904 644.198 313.584 641.414 317.503C644.457 316.093 657.908 313.479 666.409 314.466C674.903 315.453 684.42 321.44 686.425 324.937C698.437 335.964 721.011 383.385 722.514 385.383C723.418 386.585 740.945 420.995 737.5 458" stroke="white" stroke-width="6"/>
<path d="M738.353 502.5C739.631 541.992 722.382 577.615 719.428 584.135C708.417 608.441 692.813 638.825 681.341 642.905C678.489 643.67 673.267 645.324 664.859 645.522C656.452 645.72 647.759 643.432 643.825 640.67C645.252 643.705 647.941 657.141 647.001 665.648C646.062 674.147 640.128 683.697 636.642 685.722C625.682 697.795 578.387 720.633 576.397 722.147C575.201 723.058 538.024 740.739 501 737.5" stroke="white" stroke-width="6"/>
<path d="M222.207 455.885C220.792 416.398 237.918 380.716 240.849 374.184C251.775 349.841 267.274 319.403 278.731 315.283C281.581 314.508 286.798 312.836 295.204 312.609C303.611 312.382 312.993 312.609 317 315.283C315.562 312.252 312.082 300.931 312.993 292.421C313.902 283.918 319.803 274.348 323.282 272.312C334.2 260.201 381.016 237.021 383 235.5C384.194 234.585 419 219.915 455.738 219.915" stroke="white" stroke-width="6"/>
<path d="M498 758.5C548.47 755.035 566.758 747.017 580.218 742.621C611.724 732.33 645.379 705.519 658.286 695.4C661.111 694.54 666.366 693.225 674.762 692.748C683.158 692.27 694.81 697.896 698.835 700.526C697.307 697.54 693.842 690.472 692.165 682.087C690.487 673.702 692.818 662.58 693.457 659.574C704.01 647.143 726.171 617.571 736.287 586.676C748.932 548.058 752.929 546.544 757.5 500" stroke="white" stroke-width="6"/>
<path d="M458.542 201.565C407.996 203.667 391.826 213.109 378.253 217.141C346.48 226.578 312.115 252.472 298.939 262.239C296.091 263.022 290.803 264.195 282.397 264.446C273.991 264.697 262.495 258.758 258.543 256.021C259.99 259.047 263.263 266.206 264.713 274.634C266.164 283.061 263.534 294.116 262.814 297.103C251.93 309.245 228.979 338.209 218.033 368.819C204.352 407.082 205.825 413.096 200 459.5" stroke="white" stroke-width="6"/>
<rect x="280" y="280" width="20" height="20" fill="white"/>
<rect x="659" y="660" width="20" height="20" fill="white"/>
<rect x="280" y="660" width="20" height="20" fill="white"/>
<rect x="659" y="280" width="20" height="20" fill="white"/>
<circle cx="192.5" cy="360.5" r="9.5" stroke="white" stroke-width="4"/>
<circle cx="764.5" cy="598.5" r="9.5" stroke="white" stroke-width="4"/>
<circle cx="597.5" cy="193.5" r="9.5" stroke="white" stroke-width="4"/>
<circle cx="597.5" cy="766.5" r="9.5" stroke="white" stroke-width="4"/>
<circle cx="764.5" cy="360.5" r="9.5" stroke="white" stroke-width="4"/>
<circle cx="360.5" cy="766.5" r="9.5" stroke="white" stroke-width="4"/>
<circle cx="360.5" cy="193.5" r="9.5" stroke="white" stroke-width="4"/>
<circle cx="192.5" cy="598.5" r="9.5" stroke="white" stroke-width="4"/>
<path d="M532 416L511.906 292.146L478.5 78L425 416" stroke="white" stroke-width="5"/>
<line x1="478.5" y1="85.0081" x2="477.497" y2="395.008" stroke="white" stroke-width="5"/>
<line x1="479.589" y1="132.534" x2="485.589" y2="131.534" stroke="white" stroke-width="5"/>
<line x1="478.394" y1="144.575" x2="486.394" y2="142.575" stroke="white" stroke-width="5"/>
<line x1="515.209" y1="404.628" x2="530.209" y2="399.628" stroke="white" stroke-width="5"/>
<line x1="499.313" y1="398.596" x2="527.313" y2="390.596" stroke="white" stroke-width="5"/>
<line x1="478.103" y1="167.667" x2="491.103" y2="162.667" stroke="white" stroke-width="5"/>
<line x1="479.146" y1="156.651" x2="490.146" y2="152.651" stroke="white" stroke-width="5"/>
<path d="M479.5 391L524 381L480 396" stroke="white" stroke-width="5"/>
<path d="M479 365.5L521 351L478 363" stroke="white" stroke-width="5"/>
<path d="M478 370.667L522 360L478.494 376" stroke="white" stroke-width="5"/>
<path d="M476 305.667L511 297L476.393 310" stroke="white" stroke-width="5"/>
<path d="M478 267L507 259L478.326 271" stroke="white" stroke-width="5"/>
<path d="M479 223.667L501 217L479.247 227" stroke="white" stroke-width="5"/>
<path d="M477 176.667L493 170L477.18 180" stroke="white" stroke-width="5"/>
<path d="M478 186.333L495 179L478.191 190" stroke="white" stroke-width="5"/>
<path d="M477 196.667L496 190L477.213 200" stroke="white" stroke-width="5"/>
<path d="M478 205.667L499 199L478.236 209" stroke="white" stroke-width="5"/>
<path d="M479 215L500 209L479.236 218" stroke="white" stroke-width="5"/>
<path d="M477 233.333L500 226L477.258 237" stroke="white" stroke-width="5"/>
<path d="M478 241.333L503 234L478.281 245" stroke="white" stroke-width="5"/>
<path d="M477 250L506 242L477.326 254" stroke="white" stroke-width="5"/>
<path d="M478 258L507 250L478.326 262" stroke="white" stroke-width="5"/>
<path d="M478 276L508 268L478.337 280" stroke="white" stroke-width="5"/>
<path d="M478 285.667L511 277L478.371 290" stroke="white" stroke-width="5"/>
<path d="M477 295.667L512 287L477.393 300" stroke="white" stroke-width="5"/>
<path d="M479 323.667L515 315L479.404 328" stroke="white" stroke-width="5"/>
<path d="M478 314.667L514 306L478.404 319" stroke="white" stroke-width="5"/>
<path d="M476 333.333L515 324L476.438 338" stroke="white" stroke-width="5"/>
<path d="M476 342.667L520 332L476.494 348" stroke="white" stroke-width="5"/>
<path d="M477 352.667L521 342L477.494 358" stroke="white" stroke-width="5"/>
<path d="M478 381L522.5 371L478.5 386" stroke="white" stroke-width="5"/>
<path d="M543 533.999L666.935 514.41L881.215 481.877L543.436 427" stroke="white" stroke-width="5"/>
<line x1="874.207" y1="481.848" x2="564.214" y2="479.582" stroke="white" stroke-width="5"/>
<line x1="826.677" y1="482.744" x2="827.653" y2="488.748" stroke="white" stroke-width="5"/>
<line x1="814.642" y1="481.499" x2="816.609" y2="489.507" stroke="white" stroke-width="5"/>
<line x1="554.44" y1="517.255" x2="559.379" y2="532.275" stroke="white" stroke-width="5"/>
<line x1="560.537" y1="501.383" x2="568.423" y2="529.416" stroke="white" stroke-width="5"/>
<line x1="791.551" y1="481.114" x2="796.498" y2="494.134" stroke="white" stroke-width="5"/>
<line x1="802.563" y1="482.202" x2="806.518" y2="493.218" stroke="white" stroke-width="5"/>
<path d="M568.214 481.601L578.032 526.142L563.212 482.081" stroke="white" stroke-width="5"/>
<path d="M593.716 481.205L608.044 523.264L596.22 480.216" stroke="white" stroke-width="5"/>
<path d="M588.553 480.184L599.04 524.227L583.218 480.657" stroke="white" stroke-width="5"/>
<path d="M653.561 478.449L662.085 513.484L649.226 478.825" stroke="white" stroke-width="5"/>
<path d="M692.219 480.607L700.101 509.639L688.217 480.916" stroke="white" stroke-width="5"/>
<path d="M735.548 481.783L742.125 503.81L732.213 482.017" stroke="white" stroke-width="5"/>
<path d="M782.555 479.975L789.157 496.002L779.221 480.141" stroke="white" stroke-width="5"/>
<path d="M772.885 480.935L780.149 497.965L769.217 481.111" stroke="white" stroke-width="5"/>
<path d="M762.556 479.893L769.145 498.92L759.221 480.093" stroke="white" stroke-width="5"/>
<path d="M753.552 480.857L760.133 501.884L750.217 481.079" stroke="white" stroke-width="5"/>
<path d="M744.214 481.819L750.129 502.843L741.213 482.042" stroke="white" stroke-width="5"/>
<path d="M725.889 479.744L733.129 502.774L722.222 479.987" stroke="white" stroke-width="5"/>
<path d="M717.885 480.711L725.117 505.741L714.217 480.977" stroke="white" stroke-width="5"/>
<path d="M709.223 479.676L717.104 508.708L705.221 479.985" stroke="white" stroke-width="5"/>
<path d="M701.219 480.643L709.1 509.676L697.217 480.953" stroke="white" stroke-width="5"/>
<path d="M683.219 480.57L691.097 510.602L679.218 480.891" stroke="white" stroke-width="5"/>
<path d="M673.552 480.531L682.084 513.566L669.217 480.884" stroke="white" stroke-width="5"/>
<path d="M663.556 479.49L672.08 514.525L659.222 479.865" stroke="white" stroke-width="5"/>
<path d="M635.549 481.376L644.068 517.411L631.214 481.763" stroke="white" stroke-width="5"/>
<path d="M644.553 480.412L653.072 516.447L640.218 480.799" stroke="white" stroke-width="5"/>
<path d="M625.894 478.336L635.068 517.374L621.226 478.756" stroke="white" stroke-width="5"/>
<path d="M616.561 478.298L627.048 522.341L611.226 478.771" stroke="white" stroke-width="5"/>
<path d="M606.557 479.258L617.044 523.301L601.222 479.73" stroke="white" stroke-width="5"/>
<path d="M578.22 480.142L588.038 524.683L573.218 480.622" stroke="white" stroke-width="5"/>
<path d="M426 543.422L446.582 667.196L480.832 881.208L532.999 543" stroke="white" stroke-width="5"/>
<line x1="480.805" y1="874.2" x2="480.586" y2="564.199" stroke="white" stroke-width="5"/>
<line x1="479.528" y1="826.679" x2="473.532" y2="827.703" stroke="white" stroke-width="5"/>
<line x1="480.676" y1="814.634" x2="472.684" y2="816.665" stroke="white" stroke-width="5"/>
<line x1="442.835" y1="554.727" x2="427.855" y2="559.786" stroke="white" stroke-width="5"/>
<line x1="458.755" y1="560.697" x2="430.787" y2="568.807" stroke="white" stroke-width="5"/>
<line x1="480.876" y1="791.541" x2="467.896" y2="796.592" stroke="white" stroke-width="5"/>
<line x1="479.876" y1="802.561" x2="468.892" y2="806.604" stroke="white" stroke-width="5"/>
<path d="M478.598 568.215L434.138 578.39L478.078 563.217" stroke="white" stroke-width="5"/>
<path d="M479.199 593.712L437.256 608.378L480.209 596.208" stroke="white" stroke-width="5"/>
<path d="M480.178 588.542L436.221 599.382L479.663 583.211" stroke="white" stroke-width="5"/>
<path d="M482.435 653.533L447.469 662.338L482.024 649.202" stroke="white" stroke-width="5"/>
<path d="M480.587 692.208L451.619 700.322L480.245 688.209" stroke="white" stroke-width="5"/>
<path d="M479.758 735.545L457.784 742.298L479.498 732.212" stroke="white" stroke-width="5"/>
<path d="M481.943 782.536L465.97 789.266L481.75 779.204" stroke="white" stroke-width="5"/>
<path d="M480.905 772.874L463.934 780.274L480.7 769.208" stroke="white" stroke-width="5"/>
<path d="M481.864 762.537L462.891 769.278L481.638 759.204" stroke="white" stroke-width="5"/>
<path d="M480.829 753.541L459.855 760.29L480.58 750.208" stroke="white" stroke-width="5"/>
<path d="M479.792 744.211L458.816 750.294L479.544 741.212" stroke="white" stroke-width="5"/>
<path d="M481.72 725.87L458.749 733.294L481.447 722.205" stroke="white" stroke-width="5"/>
<path d="M480.688 717.874L455.717 725.306L480.393 714.209" stroke="white" stroke-width="5"/>
<path d="M481.654 709.204L452.686 717.318L481.312 705.205" stroke="white" stroke-width="5"/>
<path d="M480.622 701.208L451.654 709.322L480.281 697.209" stroke="white" stroke-width="5"/>
<path d="M480.552 683.208L450.583 691.326L480.199 679.209" stroke="white" stroke-width="5"/>
<path d="M480.513 673.541L447.548 682.338L480.126 669.209" stroke="white" stroke-width="5"/>
<path d="M481.474 663.537L446.508 672.342L481.064 659.206" stroke="white" stroke-width="5"/>
<path d="M479.364 635.545L443.398 644.354L478.942 631.214" stroke="white" stroke-width="5"/>
<path d="M480.399 644.541L444.434 653.35L479.978 640.21" stroke="white" stroke-width="5"/>
<path d="M482.325 625.867L443.363 635.354L481.869 621.202" stroke="white" stroke-width="5"/>
<path d="M482.289 616.534L438.331 627.374L481.773 611.202" stroke="white" stroke-width="5"/>
<path d="M481.249 606.538L437.292 617.378L480.734 601.206" stroke="white" stroke-width="5"/>
<path d="M480.138 578.209L435.677 588.384L479.618 573.211" stroke="white" stroke-width="5"/>
<path d="M414.848 426.712L290.836 445.812L76.4293 477.498L413.989 533.709" stroke="white" stroke-width="5"/>
<line x1="83.4372" y1="477.554" x2="393.419" y2="481.045" stroke="white" stroke-width="5"/>
<line x1="130.97" y1="476.847" x2="130.018" y2="470.839" stroke="white" stroke-width="5"/>
<line x1="143.001" y1="478.139" x2="141.065" y2="470.123" stroke="white" stroke-width="5"/>
<line x1="403.342" y1="443.411" x2="398.462" y2="428.371" stroke="white" stroke-width="5"/>
<line x1="397.182" y1="459.258" x2="389.407" y2="431.195" stroke="white" stroke-width="5"/>
<line x1="166.09" y1="478.615" x2="161.194" y2="465.576" stroke="white" stroke-width="5"/>
<line x1="155.082" y1="477.484" x2="151.171" y2="466.452" stroke="white" stroke-width="5"/>
<path d="M389.427 479.01L379.785 434.431L394.431 478.55" stroke="white" stroke-width="5"/>
<path d="M363.924 479.305L349.762 437.19L361.416 480.285" stroke="white" stroke-width="5"/>
<path d="M369.083 480.347L358.769 436.263L374.42 479.895" stroke="white" stroke-width="5"/>
<path d="M304.069 481.825L295.683 446.757L308.405 481.467" stroke="white" stroke-width="5"/>
<path d="M265.419 479.515L257.652 450.452L269.422 479.221" stroke="white" stroke-width="5"/>
<path d="M222.095 478.167L215.605 456.114L225.431 477.947" stroke="white" stroke-width="5"/>
<path d="M175.081 479.79L168.543 463.737L178.415 479.637" stroke="white" stroke-width="5"/>
<path d="M184.755 478.868L177.558 461.809L188.423 478.706" stroke="white" stroke-width="5"/>
<path d="M195.08 479.95L188.566 460.898L198.415 479.764" stroke="white" stroke-width="5"/>
<path d="M204.088 479.023L197.59 457.97L207.423 478.814" stroke="white" stroke-width="5"/>
<path d="M213.429 478.098L207.598 457.05L216.431 477.886" stroke="white" stroke-width="5"/>
<path d="M231.746 480.245L224.597 457.187L235.414 480.016" stroke="white" stroke-width="5"/>
<path d="M239.753 479.309L232.621 454.251L243.422 479.057" stroke="white" stroke-width="5"/>
<path d="M248.412 480.378L240.645 451.315L252.414 480.085" stroke="white" stroke-width="5"/>
<path d="M256.419 479.443L248.652 450.379L260.422 479.149" stroke="white" stroke-width="5"/>
<path d="M274.419 479.587L266.66 449.524L278.421 479.282" stroke="white" stroke-width="5"/>
<path d="M284.085 479.665L275.684 446.596L288.421 479.329" stroke="white" stroke-width="5"/>
<path d="M294.077 480.745L285.691 445.676L298.413 480.386" stroke="white" stroke-width="5"/>
<path d="M322.092 478.97L313.715 442.901L326.429 478.6" stroke="white" stroke-width="5"/>
<path d="M313.084 479.897L304.707 443.829L317.421 479.528" stroke="white" stroke-width="5"/>
<path d="M331.734 482.047L322.714 442.973L336.404 481.646" stroke="white" stroke-width="5"/>
<path d="M341.067 482.122L330.754 438.038L346.405 481.67" stroke="white" stroke-width="5"/>
<path d="M351.075 481.202L340.762 437.118L356.412 480.751" stroke="white" stroke-width="5"/>
<path d="M379.416 480.43L369.773 435.851L384.419 479.97" stroke="white" stroke-width="5"/>
<path d="M659 401L560 429L612 437L697 390L659 401Z" fill="white" stroke="white"/>
<path d="M399.103 300.134L427.373 399.057L435.231 347.036L388 262.164L399.103 300.134Z" fill="white" stroke="white"/>
<path d="M559.31 663.059L531.04 564.136L523.182 616.157L570.413 701.029L559.31 663.059Z" fill="white" stroke="white"/>
<path d="M399.103 661.059L427.373 562.136L435.231 614.157L388 699.029L399.103 661.059Z" fill="white" stroke="white"/>
<path d="M665.126 560.955L566.39 532.04L618.462 524.521L703.023 572.306L665.126 560.955Z" fill="white" stroke="white"/>
<path d="M295.022 560.009L394.076 532.204L342.092 524.102L257 570.935L295.022 560.009Z" fill="white" stroke="white"/>
<path d="M295.023 400.102L394.081 427.895L342.098 436.004L257 389.182L295.023 400.102Z" fill="white" stroke="white"/>
<g filter="url(#filter2_d_4_257)">
<path d="M558.16 300.065L530.747 399.229L522.439 347.277L568.934 262L558.16 300.065Z" fill="white"/>
<path d="M558.16 300.065L530.747 399.229L522.439 347.277L568.934 262L558.16 300.065Z" stroke="white"/>
</g>
<path d="M461.938 62.7812C461.167 63.3438 460.281 63.625 459.281 63.625C458.302 63.625 457.51 63.375 456.906 62.875C456.323 62.3542 456.031 61.7604 456.031 61.0938C456.031 60.4271 456.135 59.9375 456.344 59.625C456.948 59.9792 457.896 60.1562 459.188 60.1562C460.5 60.1562 461.583 59.2708 462.438 57.5V42.5C462.438 41.5208 462.229 40.7917 461.812 40.3125C461.188 39.5625 460.125 38.8229 458.625 38.0938C460.146 37.3646 461.104 36.7604 461.5 36.2812C462.125 35.4896 462.438 34.6042 462.438 33.625V20.4375C461.729 18.8333 460.448 18.0312 458.594 18.0312C457.885 18.0312 457.302 18.2083 456.844 18.5625C456.615 18.25 456.5 17.8854 456.5 17.4688C456.5 17.0521 456.604 16.6667 456.812 16.3125C457.021 15.9583 457.292 15.6458 457.625 15.375C458.354 14.8333 459.333 14.5625 460.562 14.5625C461.812 14.5625 462.875 14.9062 463.75 15.5938C464.333 14.9062 465.135 14.5625 466.156 14.5625C467.177 14.5625 468 14.9167 468.625 15.625C469.229 14.9167 469.844 14.5625 470.469 14.5625C471.115 14.5625 471.594 14.625 471.906 14.75C472.24 14.875 472.521 15.0417 472.75 15.25C473.083 15.5208 473.458 16.0521 473.875 16.8438L493.25 51.75V42.2188C493.25 41.3021 493.052 40.625 492.656 40.1875C492.052 39.5417 490.979 38.8438 489.438 38.0938C490.875 37.3854 491.802 36.8125 492.219 36.375C492.906 35.6458 493.25 34.8333 493.25 33.9375V20.8438C492.771 19.9688 492.177 19.2812 491.469 18.7812C490.781 18.2812 489.99 18.0312 489.094 18.0312C488.219 18.0312 487.479 18.2083 486.875 18.5625C486.646 18.1875 486.531 17.6771 486.531 17.0312C486.531 16.3646 486.854 15.7917 487.5 15.3125C488.146 14.8125 488.99 14.5625 490.031 14.5625C491.073 14.5625 492 14.8333 492.812 15.375C493.542 14.8333 494.375 14.5625 495.312 14.5625C496.271 14.5625 497.115 14.8438 497.844 15.4062C498.656 14.8438 499.552 14.5625 500.531 14.5625C501.51 14.5625 502.292 14.8229 502.875 15.3438C503.479 15.8438 503.781 16.4271 503.781 17.0938C503.781 17.7604 503.677 18.25 503.469 18.5625C502.865 18.2083 501.896 18.0312 500.562 18.0312C499.229 18.0312 498.167 18.9271 497.375 20.7188V33.9375C497.375 34.8333 497.562 35.4896 497.938 35.9062C498.562 36.5938 499.646 37.3229 501.188 38.0938C499.5 39.0104 498.49 39.6458 498.156 40C497.635 40.5625 497.375 41.3021 497.375 42.2188L497.938 58.0938C498.688 59.4688 499.865 60.1562 501.469 60.1562C502.177 60.1562 502.76 59.9792 503.219 59.625C503.448 59.9375 503.562 60.3021 503.562 60.7188C503.562 61.1354 503.458 61.5208 503.25 61.875C503.042 62.2292 502.771 62.5417 502.438 62.8125C501.708 63.3542 500.823 63.625 499.781 63.625C498.74 63.625 497.802 63.4167 496.969 63C495.323 63.9375 493.646 63.8646 491.938 62.7812C491.271 63.3438 490.635 63.625 490.031 63.625C489.427 63.625 488.979 63.5729 488.688 63.4688C488.396 63.3646 488.125 63.1771 487.875 62.9062C487.479 62.5104 486.865 61.5208 486.031 59.9375L466.812 26.8125V57.5C467.667 59.2708 468.75 60.1562 470.062 60.1562C471.375 60.1562 472.333 59.9792 472.938 59.625C473.167 60 473.281 60.5208 473.281 61.1875C473.281 61.8333 472.958 62.4062 472.312 62.9062C471.667 63.3854 470.833 63.625 469.812 63.625C468.792 63.625 467.854 63.3646 467 62.8438C466.25 63.3646 465.385 63.625 464.406 63.625C463.448 63.625 462.625 63.3438 461.938 62.7812ZM486.375 54.7188C486.521 54.5312 486.594 54.2396 486.594 53.8438C486.594 53.4271 486.531 52.9688 486.406 52.4688C486.302 51.9479 486.146 51.3958 485.938 50.8125C485.5 49.6458 484.927 48.3958 484.219 47.0625L470.969 23.9375C470.823 24.1667 470.75 24.5833 470.75 25.1875C470.75 26.4792 471.635 28.7396 473.406 31.9688L486.375 54.7188Z" fill="white"/>
<path d="M470.98 942.18C469.431 943.661 467.938 944.401 466.503 944.401C465.705 944.401 465.159 944.105 464.862 943.513C465.386 942.989 465.648 942.465 465.648 941.94C465.648 941.416 465.569 941.018 465.409 940.744L464.965 939.958L465.512 940.983C464.965 940.733 464.543 940.311 464.247 939.719C463.951 939.126 463.803 938.409 463.803 937.565C463.803 936.7 464.281 935.72 465.238 934.626C464.783 933.988 464.555 933.282 464.555 932.507C464.555 931.732 464.68 931.094 464.931 930.593C465.204 930.069 465.546 929.602 465.956 929.191C466.868 928.326 467.836 927.893 468.861 927.893C469.545 927.893 470.035 928.132 470.331 928.61C469.716 929.271 469.408 930.319 469.408 931.755C469.408 933.168 469.647 934.375 470.126 935.378C470.627 936.381 471.299 937.235 472.143 937.941C473.92 939.445 476.107 940.197 478.705 940.197C481.599 940.197 483.604 939.138 484.721 937.019C485.04 936.381 485.199 935.743 485.199 935.104C485.199 934.444 485.051 933.863 484.755 933.361C484.459 932.837 484.071 932.336 483.593 931.857C482.795 931.083 481.576 930.194 479.936 929.191C478.363 928.075 476.506 927.517 474.364 927.517C472.974 927.517 472.04 927.631 471.562 927.858C471.858 927.175 472.006 926.491 472.006 925.808C472.006 925.124 471.55 924.383 470.639 923.586C469.727 922.766 468.907 921.945 468.178 921.125C467.471 920.305 466.902 919.484 466.469 918.664C465.603 917.115 465.17 915.474 465.17 913.742C465.17 912.01 465.523 910.484 466.229 909.162C466.959 907.818 467.973 906.667 469.271 905.71C471.983 903.682 475.458 902.668 479.696 902.668C481.747 902.668 483.148 902.759 483.9 902.941C484.675 903.124 485.29 903.295 485.746 903.454C486.361 903.682 487.113 903.796 488.002 903.796C488.891 903.796 489.506 903.602 489.848 903.215C490.212 902.827 490.395 902.474 490.395 902.155C490.395 901.813 490.36 901.551 490.292 901.369C490.429 901.324 490.634 901.301 490.907 901.301C491.181 901.301 491.488 901.381 491.83 901.54C492.195 901.7 492.514 901.916 492.787 902.189C493.334 902.805 493.607 903.465 493.607 904.172C493.607 904.855 493.471 905.38 493.197 905.744C493.835 906.337 494.154 907.18 494.154 908.273C494.154 909.367 493.699 910.29 492.787 911.042C492.992 911.452 493.095 911.953 493.095 912.546C493.095 913.138 492.776 913.708 492.138 914.255C491.5 914.802 490.896 915.075 490.326 915.075C489.346 915.075 488.686 914.95 488.344 914.699C488.64 913.97 488.788 913.184 488.788 912.341C488.788 911.475 488.56 910.655 488.104 909.88C487.649 909.105 487.068 908.479 486.361 908C485.04 907.089 483.467 906.633 481.645 906.633C479.343 906.633 477.794 907.362 476.996 908.82C476.745 909.276 476.62 909.777 476.62 910.324C476.62 910.848 476.688 911.338 476.825 911.794C476.985 912.227 477.235 912.671 477.577 913.127C478.238 914.016 479.172 914.859 480.38 915.656C481.952 916.682 483.046 917.194 483.661 917.194C484.983 917.194 486.133 916.875 487.113 916.237C486.84 917.331 486.703 918.094 486.703 918.527C486.703 919.188 487.227 919.951 488.275 920.817C491.215 922.845 493.22 924.702 494.291 926.389C495.316 928.029 495.829 929.852 495.829 931.857C495.829 933.863 495.385 935.583 494.496 937.019C493.607 938.431 492.4 939.65 490.873 940.676C487.706 942.795 483.866 943.854 479.354 943.854C476.278 943.854 473.487 943.296 470.98 942.18ZM469.784 910.871C469.123 911.19 468.793 912.079 468.793 913.537C468.793 914.973 469.26 916.351 470.194 917.673C471.129 918.972 472.61 920.441 474.638 922.082C475.116 922.447 475.355 922.8 475.355 923.142C475.355 923.666 475.31 924.087 475.219 924.406C475.492 924.338 475.971 924.27 476.654 924.201C478.318 924.042 480.38 924.816 482.841 926.525C486.76 928.941 488.72 931.481 488.72 934.147C488.72 935.15 488.583 935.902 488.31 936.403C489.13 936.244 489.757 935.549 490.189 934.318C490.303 933.954 490.36 933.578 490.36 933.19C490.36 931.345 489.358 929.476 487.353 927.585C485.37 925.671 482.51 923.825 478.773 922.048C472.576 918.903 469.579 915.178 469.784 910.871Z" fill="white"/>
<path d="M67.5566 468.761C67.0098 468.442 66.3034 468.282 65.4375 468.282C64.5944 468.282 63.9678 468.316 63.5576 468.385C63.1475 468.453 62.7601 468.578 62.3955 468.761C61.6208 469.148 61.0625 469.866 60.7207 470.914L58.2598 478.092C58.0091 478.844 57.8838 479.505 57.8838 480.074C57.8838 480.621 57.9749 481.065 58.1572 481.407C58.3623 481.749 58.6016 482.079 58.875 482.398C59.4902 483.059 60.0029 483.447 60.4131 483.561C58.6357 484.039 57.4622 484.506 56.8926 484.962C56.0495 485.6 55.4115 486.477 54.9785 487.594L50.0908 502.394C49.3389 504.285 48.1426 505.23 46.502 505.23C46.0234 505.23 45.5107 505.151 44.9639 504.991L33.5479 476.656L25.5498 502.394C25.1624 503.624 24.3649 504.49 23.1572 504.991C22.7699 505.151 22.3483 505.23 21.8926 505.23C21.4596 505.23 20.9697 505.151 20.4229 504.991L13.1768 487.799C12.5843 486.34 11.2171 485.19 9.0752 484.347L7.09277 483.595C8.7334 482.182 9.55371 481.214 9.55371 480.689C9.55371 480.165 9.49674 479.675 9.38281 479.22C9.26888 478.764 9.08659 478.194 8.83594 477.511C8.60807 476.827 8.31185 475.995 7.94727 475.016L6.5459 471.461C5.99902 470.094 5.55469 469.262 5.21289 468.966C4.62044 468.419 3.86849 468.146 2.95703 468.146C2.04557 468.146 1.33919 468.339 0.837891 468.727C0.58724 468.476 0.461914 467.986 0.461914 467.257C0.461914 466.528 0.769531 465.867 1.38477 465.274C2 464.659 2.96842 464.352 4.29004 464.352C5.63444 464.352 6.8763 464.762 8.01562 465.582C8.94987 464.762 10.1006 464.352 11.4678 464.352C12.8577 464.352 14.0768 464.739 15.125 465.514C16.1276 464.739 17.2783 464.352 18.5771 464.352C19.876 464.352 20.89 464.659 21.6191 465.274C22.3483 465.867 22.7129 466.619 22.7129 467.53C22.7129 468.077 22.542 468.521 22.2002 468.863C21.6533 468.453 21.1406 468.248 20.6621 468.248C20.2064 468.248 19.8646 468.282 19.6367 468.351C19.4089 468.396 19.2038 468.487 19.0215 468.624C18.5658 468.943 18.3607 469.387 18.4062 469.957L25.4131 488.175L31.1211 470.675C30.3464 468.989 29.3324 468.146 28.0791 468.146C27.3271 468.146 26.6891 468.339 26.165 468.727C25.9144 468.476 25.7891 467.986 25.7891 467.257C25.7891 466.528 26.1423 465.867 26.8486 465.274C27.5778 464.659 28.569 464.352 29.8223 464.352C31.0755 464.352 32.1579 464.739 33.0693 465.514C34.0492 464.739 35.1885 464.352 36.4873 464.352C37.7861 464.352 38.9482 464.728 39.9736 465.479C40.8623 464.728 41.7965 464.352 42.7764 464.352C43.7562 464.352 44.5081 464.42 45.0322 464.557C45.5791 464.671 46.0462 464.853 46.4336 465.104C47.2995 465.605 47.7324 466.3 47.7324 467.188C47.7324 467.735 47.5615 468.18 47.2197 468.521C46.6729 468.111 46.1146 467.906 45.5449 467.906C44.9753 467.906 44.5195 468.123 44.1777 468.556C43.8587 468.989 43.6992 469.479 43.6992 470.025C43.6992 470.549 43.7676 471.028 43.9043 471.461L43.8359 471.29L50.0908 488.175L56.0381 470.572C55.9697 468.932 54.9671 468.111 53.0303 468.111C52.1188 468.111 51.2871 468.328 50.5352 468.761C50.2845 468.351 50.1592 467.804 50.1592 467.12C50.1592 466.414 50.4668 465.776 51.082 465.206C51.6973 464.636 52.5404 464.352 53.6113 464.352C54.7051 464.352 55.6393 464.716 56.4141 465.445C57.2344 464.716 58.1686 464.352 59.2168 464.352C60.265 464.352 61.1878 464.682 61.9854 465.343C62.8285 464.682 63.7399 464.352 64.7197 464.352C65.7223 464.352 66.4971 464.625 67.0439 465.172C67.6136 465.719 67.8984 466.368 67.8984 467.12C67.8984 467.872 67.7845 468.419 67.5566 468.761ZM18.4404 470.367C18.5088 470.618 18.6113 470.903 18.748 471.222L18.4404 470.367ZM36.8975 472.179C36.5785 472.634 36.4189 473.181 36.4189 473.819C36.4189 474.457 36.4759 475.038 36.5898 475.562C36.7266 476.087 36.8975 476.645 37.1025 477.237C37.3076 477.83 37.5469 478.456 37.8203 479.117L38.5723 481.1L44.6221 494.942C44.8271 494.715 44.9297 494.327 44.9297 493.78C44.9297 493.233 44.8955 492.8 44.8271 492.481C44.7816 492.162 44.679 491.764 44.5195 491.285C44.3828 490.807 44.1891 490.214 43.9385 489.508L43.0156 486.944L36.8975 472.179ZM12.0146 472.179C11.6956 472.384 11.5361 472.783 11.5361 473.375C11.5361 473.967 11.5475 474.412 11.5703 474.708C11.5931 474.981 11.6501 475.312 11.7412 475.699C11.9235 476.52 12.2995 477.613 12.8691 478.98C13.4388 480.325 13.7236 481.145 13.7236 481.441C13.7464 481.738 13.7236 481.988 13.6553 482.193C13.5869 482.376 13.4844 482.558 13.3477 482.74C13.0742 483.196 12.7438 483.492 12.3564 483.629C13.9515 483.948 14.9427 484.449 15.3301 485.133L15.8086 486.056C15.9453 486.352 16.1048 486.728 16.2871 487.184L18.167 491.388C18.6455 492.436 19.1126 493.245 19.5684 493.814C20.0241 494.384 20.6393 494.76 21.4141 494.942L12.0146 472.179Z" fill="white"/>
<path d="M909.381 506.684C907.877 506.684 906.544 506.319 905.382 505.59C904.22 506.319 903.137 506.684 902.135 506.684C901.155 506.684 900.346 506.592 899.708 506.41C899.07 506.251 898.512 506.023 898.033 505.727C897.053 505.134 896.563 504.394 896.563 503.505C896.563 503.049 896.689 502.65 896.939 502.309C897.441 502.696 898.079 502.89 898.854 502.89C900.882 502.89 902.283 502.024 903.058 500.292V483.578C903.058 482.53 902.841 481.755 902.408 481.254C901.725 480.411 900.551 479.579 898.888 478.759C900.437 478.052 901.44 477.426 901.896 476.879C902.67 475.99 903.058 474.988 903.058 473.871V459.447C902.283 457.693 900.882 456.815 898.854 456.815C898.079 456.815 897.441 457.009 896.939 457.396C896.689 457.055 896.563 456.667 896.563 456.234C896.563 455.779 896.689 455.357 896.939 454.97C897.213 454.582 897.577 454.252 898.033 453.979C899.081 453.34 900.278 453.021 901.622 453.021C902.989 453.021 904.243 453.397 905.382 454.149C906.567 453.397 907.923 453.021 909.449 453.021C910.976 453.021 912.366 453.466 913.619 454.354C916.035 453.466 918.826 453.021 921.993 453.021C924.34 453.021 926.345 453.249 928.009 453.705L931.051 454.525C931.415 454.617 931.769 454.662 932.11 454.662C932.748 454.662 933.067 454.206 933.067 453.295C933.067 453.067 932.988 452.68 932.828 452.133C933.466 452.019 934.275 451.962 935.255 451.962C936.235 451.962 937.066 452.292 937.75 452.953C938.434 453.591 938.775 454.525 938.775 455.756C938.775 456.964 938.559 457.852 938.126 458.422C938.741 459.333 939.049 460.45 939.049 461.771C939.049 463.07 938.604 464.164 937.716 465.053C937.989 465.736 938.126 466.409 938.126 467.069C938.126 467.707 938.012 468.3 937.784 468.847C937.579 469.371 937.317 469.815 936.998 470.18C936.36 470.84 935.711 471.171 935.05 471.171C934.093 471.171 933.227 470.966 932.452 470.556C932.726 470.009 932.862 469.2 932.862 468.129C932.862 465.622 932.236 463.424 930.982 461.532C929.273 458.935 926.71 457.636 923.292 457.636C921.56 457.636 919.988 458.057 918.575 458.9C917.185 459.743 916.205 460.951 915.636 462.523V475.751C916.433 476.252 917.174 476.503 917.857 476.503C918.564 476.503 919.088 476.492 919.43 476.469C919.794 476.446 920.159 476.4 920.523 476.332C921.458 476.195 922.175 476.013 922.677 475.785C923.634 475.329 924.112 474.213 924.112 472.436C924.112 471.433 923.873 470.658 923.395 470.111C923.85 469.792 924.42 469.633 925.104 469.633C926.63 469.633 927.735 470.248 928.419 471.479C928.67 471.911 928.795 472.39 928.795 472.914C928.795 473.438 928.658 474.088 928.385 474.862C929.319 475.933 929.786 477.209 929.786 478.69C929.786 480.149 929.319 481.413 928.385 482.484C928.658 483.259 928.795 483.965 928.795 484.604C928.795 485.219 928.67 485.811 928.419 486.381C928.168 486.951 927.861 487.406 927.496 487.748C926.79 488.386 925.992 488.705 925.104 488.705C924.465 488.705 923.896 488.523 923.395 488.158C923.873 487.361 924.112 486.426 924.112 485.355C924.112 483.236 923.531 481.926 922.369 481.425C921.344 481.015 920.17 480.81 918.849 480.81C917.527 480.81 916.456 481.049 915.636 481.527V498.617C916.957 500.941 919.509 502.104 923.292 502.104C927.576 502.104 930.493 500.782 932.042 498.139C933.842 495.108 934.742 491.861 934.742 488.397C934.742 487.395 934.651 486.62 934.469 486.073C935.038 485.504 935.631 485.219 936.246 485.219C936.861 485.219 937.328 485.31 937.647 485.492C937.966 485.652 938.251 485.857 938.502 486.107C939.049 486.723 939.322 487.349 939.322 487.987L939.117 489.662C939.117 490.095 939.231 490.448 939.459 490.722C939.915 491.2 940.143 491.656 940.143 492.089C940.143 492.499 940.006 493 939.732 493.593C940.257 493.889 940.724 494.333 941.134 494.926C941.567 495.495 941.783 496.088 941.783 496.703C941.783 498.002 941.236 499.164 940.143 500.189C940.621 500.873 940.86 501.864 940.86 503.163C940.86 504.439 940.484 505.521 939.732 506.41C939.003 507.322 938.046 507.777 936.861 507.777C936.223 507.777 935.562 507.709 934.879 507.572C934.97 507.071 935.016 506.57 935.016 506.068C935.016 505.02 934.537 504.496 933.58 504.496C932.509 504.496 931.438 504.713 930.367 505.146C927.838 506.171 924.955 506.684 921.72 506.684C918.507 506.684 915.772 506.262 913.517 505.419C912.332 506.262 910.953 506.684 909.381 506.684ZM906.339 496.942C907.478 496.509 908.105 495.017 908.219 492.465C908.355 489.913 908.424 486.381 908.424 481.869C908.424 477.357 908.412 474.361 908.39 472.88C908.39 471.376 908.378 470.168 908.355 469.257C908.287 466.568 908.025 464.95 907.569 464.403C907.136 463.834 906.726 463.458 906.339 463.275C906.339 471.205 906.202 475.717 905.929 476.811C905.61 477.722 904.835 478.371 903.604 478.759C904.972 479.237 905.746 479.818 905.929 480.502C906.202 481.596 906.339 485.595 906.339 492.499V496.942ZM914.952 496.601C914.952 496.669 914.964 496.726 914.986 496.771L914.952 496.601Z" fill="white"/>
<defs>
<filter id="filter0_d_4_257" x="389" y="394" width="180" height="180" filterUnits="userSpaceOnUse" color-interpolation-filters="sRGB">
<feFlood flood-opacity="0" result="BackgroundImageFix"/>
<feColorMatrix in="SourceAlpha" type="matrix" values="0 0 0 0 0 0 0 0 0 0 0 0 0 0 0 0 0 0 127 0" result="hardAlpha"/>
<feOffset dy="4"/>
<feGaussianBlur stdDeviation="2"/>
<feComposite in2="hardAlpha" operator="out"/>
<feColorMatrix type="matrix" values="0 0 0 0 0 0 0 0 0 0 0 0 0 0 0 0 0 0 0.25 0"/>
<feBlend mode="normal" in2="BackgroundImageFix" result="effect1_dropShadow_4_257"/>
<feBlend mode="normal" in="SourceGraphic" in2="effect1_dropShadow_4_257" result="shape"/>
</filter>
<filter id="filter1_d_4_257" x="408" y="413" width="142" height="141" filterUnits="userSpaceOnUse" color-interpolation-filters="sRGB">
<feFlood flood-opacity="0" result="BackgroundImageFix"/>
<feColorMatrix in="SourceAlpha" type="matrix" values="0 0 0 0 0 0 0 0 0 0 0 0 0 0 0 0 0 0 127 0" result="hardAlpha"/>
<feOffset dy="4"/>
<feGaussianBlur stdDeviation="2"/>
<feComposite in2="hardAlpha" operator="out"/>
<feColorMatrix type="matrix" values="0 0 0 0 0 0 0 0 0 0 0 0 0 0 0 0 0 0 0.25 0"/>
<feBlend mode="normal" in2="BackgroundImageFix" result="effect1_dropShadow_4_257"/>
<feBlend mode="normal" in="SourceGraphic" in2="effect1_dropShadow_4_257" result="shape"/>
</filter>
<filter id="filter2_d_4_257" x="517.918" y="261.761" width="55.4969" height="145.601" filterUnits="userSpaceOnUse" color-interpolation-filters="sRGB">
<feFlood flood-opacity="0" result="BackgroundImageFix"/>
<feColorMatrix in="SourceAlpha" type="matrix" values="0 0 0 0 0 0 0 0 0 0 0 0 0 0 0 0 0 0 127 0" result="hardAlpha"/>
<feOffset dy="4"/>
<feGaussianBlur stdDeviation="2"/>
<feComposite in2="hardAlpha" operator="out"/>
<feColorMatrix type="matrix" values="0 0 0 0 0 0 0 0 0 0 0 0 0 0 0 0 0 0 0.25 0"/>
<feBlend mode="normal" in2="BackgroundImageFix" result="effect1_dropShadow_4_257"/>
<feBlend mode="normal" in="SourceGraphic" in2="effect1_dropShadow_4_257" result="shape"/>
</filter>
</defs>
</svg>
