<svg width="180" height="804" viewBox="0 0 180 804" fill="none" xmlns="http://www.w3.org/2000/svg">
<g filter="url(#filter0_d_9_78)">
<circle cx="90" cy="403" r="83.5" stroke="white" stroke-width="5" shape-rendering="crispEdges"/>
</g>
<g filter="url(#filter1_d_9_78)">
<path d="M154.5 403.5C154.5 439.388 125.185 468.5 89 468.5C52.8147 468.5 23.5 439.388 23.5 403.5C23.5 367.612 52.8147 338.5 89 338.5C125.185 338.5 154.5 367.612 154.5 403.5Z" stroke="white" stroke-width="3" shape-rendering="crispEdges"/>
</g>
<path d="M103.5 381.5C93.5 376.7 89.1667 363.167 89.5 357C89 363.333 85.7 377.1 76.5 381.5C67.3 385.9 55 381.667 50 379C54.6667 384 64.4 392.1 66 400.5C67.6 408.9 56.6667 421.333 51 424.5C58 423.167 71.6 420.3 78 423.5C84.4 426.7 88.6667 442.167 89.5 448.5C89.1667 441.667 92.7 427.5 103.5 423.5C114.3 419.5 124.5 422 128.5 424.5C123.5 419.833 113.3 408.5 112.5 400.5C111.7 392.5 122.833 382.833 128.5 379C123.5 381.833 113.5 386.3 103.5 381.5Z" fill="white" stroke="white"/>
<path d="M120 360.5C120 364.642 116.642 368 112.5 368C108.358 368 105 364.642 105 360.5C105 356.358 108.358 353 112.5 353C116.642 353 120 356.358 120 360.5Z" fill="white"/>
<path d="M73 360.5C73 364.642 69.6421 368 65.5 368C61.3579 368 58 364.642 58 360.5C58 356.358 61.3579 353 65.5 353C69.6421 353 73 356.358 73 360.5Z" fill="white"/>
<path d="M144 404.5C144 408.642 140.642 412 136.5 412C132.358 412 129 408.642 129 404.5C129 400.358 132.358 397 136.5 397C140.642 397 144 400.358 144 404.5Z" fill="white"/>
<path d="M35.0001 465.422L55.5821 589.196L89.8322 803.208L141.999 465" stroke="white" stroke-width="5"/>
<line x1="89.8046" y1="796.2" x2="89.5856" y2="486.199" stroke="white" stroke-width="5"/>
<line x1="88.5282" y1="748.679" x2="82.5322" y2="749.703" stroke="white" stroke-width="5"/>
<line x1="89.6761" y1="736.634" x2="81.684" y2="738.665" stroke="white" stroke-width="5"/>
<line x1="51.8353" y1="476.727" x2="36.8551" y2="481.786" stroke="white" stroke-width="5"/>
<line x1="67.7552" y1="482.697" x2="39.787" y2="490.807" stroke="white" stroke-width="5"/>
<line x1="89.8761" y1="713.541" x2="76.8959" y2="718.592" stroke="white" stroke-width="5"/>
<line x1="88.8765" y1="724.561" x2="77.8923" y2="728.604" stroke="white" stroke-width="5"/>
<path d="M87.5982 490.215L43.138 500.39L87.0785 485.217" stroke="white" stroke-width="5"/>
<path d="M88.1988 515.712L46.2563 530.378L89.2086 518.208" stroke="white" stroke-width="5"/>
<path d="M89.1783 510.542L45.2207 521.382L88.6629 505.211" stroke="white" stroke-width="5"/>
<path d="M91.4346 575.533L56.4691 584.338L91.0243 571.202" stroke="white" stroke-width="5"/>
<path d="M89.5871 614.208L60.6188 622.322L89.2454 610.209" stroke="white" stroke-width="5"/>
<path d="M88.7579 657.545L66.7844 664.298L88.4976 654.212" stroke="white" stroke-width="5"/>
<path d="M90.9432 704.536L74.9696 711.266L90.7503 701.204" stroke="white" stroke-width="5"/>
<path d="M89.9051 694.874L72.9342 702.274L89.6996 691.208" stroke="white" stroke-width="5"/>
<path d="M90.8643 684.537L71.8908 691.278L90.6377 681.204" stroke="white" stroke-width="5"/>
<path d="M89.8289 675.541L68.8553 682.29L89.5798 672.208" stroke="white" stroke-width="5"/>
<path d="M88.7921 666.211L67.8159 672.294L88.5443 663.212" stroke="white" stroke-width="5"/>
<path d="M90.7198 647.87L67.7489 655.294L90.4469 644.205" stroke="white" stroke-width="5"/>
<path d="M89.6883 639.874L64.7174 647.306L89.3929 636.209" stroke="white" stroke-width="5"/>
<path d="M90.6541 631.204L61.6858 639.318L90.3125 627.205" stroke="white" stroke-width="5"/>
<path d="M89.6226 623.208L60.6543 631.322L89.281 619.209" stroke="white" stroke-width="5"/>
<path d="M89.5516 605.208L59.5834 613.326L89.1987 601.209" stroke="white" stroke-width="5"/>
<path d="M89.5135 595.541L56.5479 604.338L89.1256 591.209" stroke="white" stroke-width="5"/>
<path d="M90.4741 585.537L55.5085 594.342L90.0637 581.206" stroke="white" stroke-width="5"/>
<path d="M88.3637 557.545L52.3981 566.354L87.9421 553.214" stroke="white" stroke-width="5"/>
<path d="M89.3991 566.541L53.4336 575.35L88.9775 562.21" stroke="white" stroke-width="5"/>
<path d="M91.3255 547.867L52.3626 557.354L90.8689 543.202" stroke="white" stroke-width="5"/>
<path d="M91.2888 538.534L47.3312 549.374L90.7734 533.202" stroke="white" stroke-width="5"/>
<path d="M90.2493 528.538L46.2917 539.378L89.7339 523.206" stroke="white" stroke-width="5"/>
<path d="M89.1376 500.209L44.6774 510.384L88.6179 495.211" stroke="white" stroke-width="5"/>
<path d="M145 339L124.906 215.146L91.5 1L38 339" stroke="white" stroke-width="5"/>
<line x1="91.5" y1="8.00809" x2="90.4967" y2="318.008" stroke="white" stroke-width="5"/>
<line x1="92.589" y1="55.534" x2="98.589" y2="54.534" stroke="white" stroke-width="5"/>
<line x1="91.3937" y1="67.5746" x2="99.3937" y2="65.5746" stroke="white" stroke-width="5"/>
<line x1="128.209" y1="327.628" x2="143.209" y2="322.628" stroke="white" stroke-width="5"/>
<line x1="112.313" y1="321.596" x2="140.313" y2="313.596" stroke="white" stroke-width="5"/>
<line x1="91.1026" y1="90.6666" x2="104.103" y2="85.6666" stroke="white" stroke-width="5"/>
<line x1="92.1456" y1="79.6505" x2="103.146" y2="75.6505" stroke="white" stroke-width="5"/>
<path d="M92.5 314L137 304L93 319" stroke="white" stroke-width="5"/>
<path d="M92 288.5L134 274L91 286" stroke="white" stroke-width="5"/>
<path d="M91 293.667L135 283L91.4944 299" stroke="white" stroke-width="5"/>
<path d="M89 228.667L124 220L89.3933 233" stroke="white" stroke-width="5"/>
<path d="M91 190L120 182L91.3258 194" stroke="white" stroke-width="5"/>
<path d="M92 146.667L114 140L92.2472 150" stroke="white" stroke-width="5"/>
<path d="M90 99.6667L106 93L90.1798 103" stroke="white" stroke-width="5"/>
<path d="M91 109.333L108 102L91.191 113" stroke="white" stroke-width="5"/>
<path d="M90 119.667L109 113L90.2135 123" stroke="white" stroke-width="5"/>
<path d="M91 128.667L112 122L91.236 132" stroke="white" stroke-width="5"/>
<path d="M92 138L113 132L92.236 141" stroke="white" stroke-width="5"/>
<path d="M90 156.333L113 149L90.2584 160" stroke="white" stroke-width="5"/>
<path d="M91 164.333L116 157L91.2809 168" stroke="white" stroke-width="5"/>
<path d="M90 173L119 165L90.3258 177" stroke="white" stroke-width="5"/>
<path d="M91 181L120 173L91.3258 185" stroke="white" stroke-width="5"/>
<path d="M91 199L121 191L91.3371 203" stroke="white" stroke-width="5"/>
<path d="M91 208.667L124 200L91.3708 213" stroke="white" stroke-width="5"/>
<path d="M90 218.667L125 210L90.3933 223" stroke="white" stroke-width="5"/>
<path d="M92 246.667L128 238L92.4045 251" stroke="white" stroke-width="5"/>
<path d="M91 237.667L127 229L91.4045 242" stroke="white" stroke-width="5"/>
<path d="M89 256.333L128 247L89.4382 261" stroke="white" stroke-width="5"/>
<path d="M89 265.667L133 255L89.4944 271" stroke="white" stroke-width="5"/>
<path d="M90 275.667L134 265L90.4944 281" stroke="white" stroke-width="5"/>
<path d="M91 304L135.5 294L91.5 309" stroke="white" stroke-width="5"/>
<path d="M50 404.5C50 408.642 46.6421 412 42.5 412C38.3579 412 35 408.642 35 404.5C35 400.358 38.3579 397 42.5 397C46.6421 397 50 400.358 50 404.5Z" fill="white"/>
<path d="M73 446.5C73 450.642 69.6421 454 65.5 454C61.3579 454 58 450.642 58 446.5C58 442.358 61.3579 439 65.5 439C69.6421 439 73 442.358 73 446.5Z" fill="white"/>
<path d="M120 446.5C120 450.642 116.642 454 112.5 454C108.358 454 105 450.642 105 446.5C105 442.358 108.358 439 112.5 439C116.642 439 120 442.358 120 446.5Z" fill="white"/>
<defs>
<filter id="filter0_d_9_78" x="0" y="317" width="180" height="180" filterUnits="userSpaceOnUse" color-interpolation-filters="sRGB">
<feFlood flood-opacity="0" result="BackgroundImageFix"/>
<feColorMatrix in="SourceAlpha" type="matrix" values="0 0 0 0 0 0 0 0 0 0 0 0 0 0 0 0 0 0 127 0" result="hardAlpha"/>
<feOffset dy="4"/>
<feGaussianBlur stdDeviation="2"/>
<feComposite in2="hardAlpha" operator="out"/>
<feColorMatrix type="matrix" values="0 0 0 0 0 0 0 0 0 0 0 0 0 0 0 0 0 0 0.25 0"/>
<feBlend mode="normal" in2="BackgroundImageFix" result="effect1_dropShadow_9_78"/>
<feBlend mode="normal" in="SourceGraphic" in2="effect1_dropShadow_9_78" result="shape"/>
</filter>
<filter id="filter1_d_9_78" x="18" y="337" width="142" height="141" filterUnits="userSpaceOnUse" color-interpolation-filters="sRGB">
<feFlood flood-opacity="0" result="BackgroundImageFix"/>
<feColorMatrix in="SourceAlpha" type="matrix" values="0 0 0 0 0 0 0 0 0 0 0 0 0 0 0 0 0 0 127 0" result="hardAlpha"/>
<feOffset dy="4"/>
<feGaussianBlur stdDeviation="2"/>
<feComposite in2="hardAlpha" operator="out"/>
<feColorMatrix type="matrix" values="0 0 0 0 0 0 0 0 0 0 0 0 0 0 0 0 0 0 0.25 0"/>
<feBlend mode="normal" in2="BackgroundImageFix" result="effect1_dropShadow_9_78"/>
<feBlend mode="normal" in="SourceGraphic" in2="effect1_dropShadow_9_78" result="shape"/>
</filter>
</defs>
</svg>
