<svg width="804" height="181" viewBox="0 0 804 181" fill="none" xmlns="http://www.w3.org/2000/svg">
<g filter="url(#filter0_d_101_2)">
<circle cx="402.79" cy="86.2097" r="83.5" transform="rotate(-90 402.79 86.2097)" stroke="white" stroke-width="5" shape-rendering="crispEdges"/>
</g>
<g filter="url(#filter1_d_101_2)">
<path d="M403.29 21.7097C439.178 21.7097 468.29 51.0244 468.29 87.2097C468.29 123.395 439.178 152.71 403.29 152.71C367.402 152.71 338.29 123.395 338.29 87.2097C338.29 51.0244 367.402 21.7097 403.29 21.7097Z" stroke="white" stroke-width="3" shape-rendering="crispEdges"/>
</g>
<path d="M381.29 72.7097C376.49 82.7097 362.957 87.043 356.79 86.7097C363.123 87.2097 376.89 90.5097 381.29 99.7097C385.69 108.91 381.457 121.21 378.79 126.21C383.79 121.543 391.89 111.81 400.29 110.21C408.69 108.61 421.123 119.543 424.29 125.21C422.957 118.21 420.09 104.61 423.29 98.2097C426.49 91.8097 441.957 87.543 448.29 86.7097C441.457 87.043 427.29 83.5097 423.29 72.7097C419.29 61.9097 421.79 51.7097 424.29 47.7097C419.623 52.7097 408.29 62.9097 400.29 63.7097C392.29 64.5097 382.623 53.3763 378.79 47.7097C381.623 52.7097 386.09 62.7097 381.29 72.7097Z" fill="white" stroke="white"/>
<path d="M360.29 56.2097C364.432 56.2097 367.79 59.5675 367.79 63.7097C367.79 67.8518 364.432 71.2097 360.29 71.2097C356.148 71.2097 352.79 67.8518 352.79 63.7097C352.79 59.5675 356.148 56.2097 360.29 56.2097Z" fill="white"/>
<path d="M360.29 103.21C364.432 103.21 367.79 106.568 367.79 110.71C367.79 114.852 364.432 118.21 360.29 118.21C356.148 118.21 352.79 114.852 352.79 110.71C352.79 106.568 356.148 103.21 360.29 103.21Z" fill="white"/>
<path d="M404.29 32.2097C408.432 32.2097 411.79 35.5675 411.79 39.7097C411.79 43.8518 408.432 47.2097 404.29 47.2097C400.148 47.2097 396.79 43.8518 396.79 39.7097C396.79 35.5675 400.148 32.2097 404.29 32.2097Z" fill="white"/>
<path d="M465.212 141.21L588.986 120.628L802.998 86.3775L464.79 34.2104" stroke="white" stroke-width="5"/>
<line x1="795.99" y1="86.4051" x2="485.989" y2="86.624" stroke="white" stroke-width="5"/>
<line x1="748.469" y1="87.6815" x2="749.493" y2="93.6775" stroke="white" stroke-width="5"/>
<line x1="736.424" y1="86.5336" x2="738.455" y2="94.5256" stroke="white" stroke-width="5"/>
<line x1="476.517" y1="124.374" x2="481.576" y2="139.355" stroke="white" stroke-width="5"/>
<line x1="482.487" y1="108.454" x2="490.597" y2="136.423" stroke="white" stroke-width="5"/>
<line x1="713.331" y1="86.3335" x2="718.382" y2="99.3137" stroke="white" stroke-width="5"/>
<line x1="724.351" y1="87.3332" x2="728.394" y2="98.3173" stroke="white" stroke-width="5"/>
<path d="M490.005 88.6114L500.18 133.072L485.007 89.1312" stroke="white" stroke-width="5"/>
<path d="M515.502 88.0109L530.168 129.953L517.999 87.0011" stroke="white" stroke-width="5"/>
<path d="M510.332 87.0313L521.172 130.989L505 87.5467" stroke="white" stroke-width="5"/>
<path d="M575.324 84.775L584.128 119.741L570.992 85.1854" stroke="white" stroke-width="5"/>
<path d="M613.998 86.6226L622.112 115.591L609.999 86.9642" stroke="white" stroke-width="5"/>
<path d="M657.335 87.4517L664.088 109.425L654.002 87.7121" stroke="white" stroke-width="5"/>
<path d="M704.326 85.2665L711.056 101.24L700.994 85.4594" stroke="white" stroke-width="5"/>
<path d="M694.664 86.3046L702.064 103.276L690.998 86.51" stroke="white" stroke-width="5"/>
<path d="M684.327 85.3453L691.068 104.319L680.994 85.5719" stroke="white" stroke-width="5"/>
<path d="M675.331 86.3808L682.08 107.354L671.998 86.6299" stroke="white" stroke-width="5"/>
<path d="M666.001 87.4176L672.084 108.394L663.002 87.6654" stroke="white" stroke-width="5"/>
<path d="M647.66 85.4899L655.084 108.461L643.995 85.7627" stroke="white" stroke-width="5"/>
<path d="M639.664 86.5214L647.096 111.492L635.999 86.8168" stroke="white" stroke-width="5"/>
<path d="M630.994 85.5556L639.108 114.524L626.995 85.8972" stroke="white" stroke-width="5"/>
<path d="M622.998 86.5871L631.112 115.555L618.999 86.9287" stroke="white" stroke-width="5"/>
<path d="M604.998 86.6581L613.116 116.626L600.999 87.0109" stroke="white" stroke-width="5"/>
<path d="M595.331 86.6962L604.128 119.662L590.999 87.084" stroke="white" stroke-width="5"/>
<path d="M585.327 85.7356L594.132 120.701L580.996 86.146" stroke="white" stroke-width="5"/>
<path d="M557.335 87.846L566.144 123.812L553.004 88.2676" stroke="white" stroke-width="5"/>
<path d="M566.331 86.8105L575.14 122.776L562 87.2321" stroke="white" stroke-width="5"/>
<path d="M547.657 84.8841L557.144 123.847L542.992 85.3407" stroke="white" stroke-width="5"/>
<path d="M538.324 84.9209L549.164 128.879L532.992 85.4363" stroke="white" stroke-width="5"/>
<path d="M528.328 85.9603L539.168 129.918L522.996 86.4757" stroke="white" stroke-width="5"/>
<path d="M499.999 87.072L510.174 131.532L495.001 87.5917" stroke="white" stroke-width="5"/>
<path d="M338.79 31.2097L214.936 51.3036L0.790039 84.7097L338.79 138.21" stroke="white" stroke-width="5"/>
<line x1="7.79813" y1="84.7097" x2="317.798" y2="85.7129" stroke="white" stroke-width="5"/>
<line x1="55.3241" y1="83.6207" x2="54.3241" y2="77.6207" stroke="white" stroke-width="5"/>
<line x1="67.3647" y1="84.816" x2="65.3647" y2="76.816" stroke="white" stroke-width="5"/>
<line x1="327.418" y1="48.0002" x2="322.418" y2="33.0002" stroke="white" stroke-width="5"/>
<line x1="321.386" y1="63.8965" x2="313.386" y2="35.8965" stroke="white" stroke-width="5"/>
<line x1="90.4567" y1="85.1071" x2="85.4567" y2="72.1071" stroke="white" stroke-width="5"/>
<line x1="79.4406" y1="84.064" x2="75.4406" y2="73.064" stroke="white" stroke-width="5"/>
<path d="M313.79 83.7097L303.79 39.2097L318.79 83.2097" stroke="white" stroke-width="5"/>
<path d="M288.29 84.2097L273.79 42.2097L285.79 85.2097" stroke="white" stroke-width="5"/>
<path d="M293.457 85.2097L282.79 41.2097L298.79 84.7153" stroke="white" stroke-width="5"/>
<path d="M228.457 87.2097L219.79 52.2097L232.79 86.8164" stroke="white" stroke-width="5"/>
<path d="M189.79 85.2097L181.79 56.2097L193.79 84.8838" stroke="white" stroke-width="5"/>
<path d="M146.457 84.2097L139.79 62.2097L149.79 83.9625" stroke="white" stroke-width="5"/>
<path d="M99.4567 86.2097L92.79 70.2097L102.79 86.0299" stroke="white" stroke-width="5"/>
<path d="M109.123 85.2097L101.79 68.2097L112.79 85.0187" stroke="white" stroke-width="5"/>
<path d="M119.457 86.2097L112.79 67.2097L122.79 85.9962" stroke="white" stroke-width="5"/>
<path d="M128.457 85.2097L121.79 64.2097L131.79 84.9737" stroke="white" stroke-width="5"/>
<path d="M137.79 84.2097L131.79 63.2097L140.79 83.9737" stroke="white" stroke-width="5"/>
<path d="M156.123 86.2097L148.79 63.2097L159.79 85.9512" stroke="white" stroke-width="5"/>
<path d="M164.123 85.2097L156.79 60.2097L167.79 84.9288" stroke="white" stroke-width="5"/>
<path d="M172.79 86.2097L164.79 57.2097L176.79 85.8838" stroke="white" stroke-width="5"/>
<path d="M180.79 85.2097L172.79 56.2097L184.79 84.8838" stroke="white" stroke-width="5"/>
<path d="M198.79 85.2097L190.79 55.2097L202.79 84.8726" stroke="white" stroke-width="5"/>
<path d="M208.457 85.2097L199.79 52.2097L212.79 84.8389" stroke="white" stroke-width="5"/>
<path d="M218.457 86.2097L209.79 51.2097L222.79 85.8164" stroke="white" stroke-width="5"/>
<path d="M246.457 84.2097L237.79 48.2097L250.79 83.8052" stroke="white" stroke-width="5"/>
<path d="M237.457 85.2097L228.79 49.2097L241.79 84.8052" stroke="white" stroke-width="5"/>
<path d="M256.123 87.2097L246.79 48.2097L260.79 86.7715" stroke="white" stroke-width="5"/>
<path d="M265.457 87.2097L254.79 43.2097L270.79 86.7153" stroke="white" stroke-width="5"/>
<path d="M275.457 86.2097L264.79 42.2097L280.79 85.7153" stroke="white" stroke-width="5"/>
<path d="M303.79 85.2097L293.79 40.7097L308.79 84.7097" stroke="white" stroke-width="5"/>
<path d="M404.29 126.21C408.432 126.21 411.79 129.568 411.79 133.71C411.79 137.852 408.432 141.21 404.29 141.21C400.148 141.21 396.79 137.852 396.79 133.71C396.79 129.568 400.148 126.21 404.29 126.21Z" fill="white"/>
<path d="M446.29 103.21C450.432 103.21 453.79 106.568 453.79 110.71C453.79 114.852 450.432 118.21 446.29 118.21C442.148 118.21 438.79 114.852 438.79 110.71C438.79 106.568 442.148 103.21 446.29 103.21Z" fill="white"/>
<path d="M446.29 56.2097C450.432 56.2097 453.79 59.5675 453.79 63.7097C453.79 67.8518 450.432 71.2097 446.29 71.2097C442.148 71.2097 438.79 67.8518 438.79 63.7097C438.79 59.5675 442.148 56.2097 446.29 56.2097Z" fill="white"/>
<defs>
<filter id="filter0_d_101_2" x="312.79" y="0.209648" width="180" height="180" filterUnits="userSpaceOnUse" color-interpolation-filters="sRGB">
<feFlood flood-opacity="0" result="BackgroundImageFix"/>
<feColorMatrix in="SourceAlpha" type="matrix" values="0 0 0 0 0 0 0 0 0 0 0 0 0 0 0 0 0 0 127 0" result="hardAlpha"/>
<feOffset dy="4"/>
<feGaussianBlur stdDeviation="2"/>
<feComposite in2="hardAlpha" operator="out"/>
<feColorMatrix type="matrix" values="0 0 0 0 0 0 0 0 0 0 0 0 0 0 0 0 0 0 0.25 0"/>
<feBlend mode="normal" in2="BackgroundImageFix" result="effect1_dropShadow_101_2"/>
<feBlend mode="normal" in="SourceGraphic" in2="effect1_dropShadow_101_2" result="shape"/>
</filter>
<filter id="filter1_d_101_2" x="332.79" y="20.2097" width="141" height="142" filterUnits="userSpaceOnUse" color-interpolation-filters="sRGB">
<feFlood flood-opacity="0" result="BackgroundImageFix"/>
<feColorMatrix in="SourceAlpha" type="matrix" values="0 0 0 0 0 0 0 0 0 0 0 0 0 0 0 0 0 0 127 0" result="hardAlpha"/>
<feOffset dy="4"/>
<feGaussianBlur stdDeviation="2"/>
<feComposite in2="hardAlpha" operator="out"/>
<feColorMatrix type="matrix" values="0 0 0 0 0 0 0 0 0 0 0 0 0 0 0 0 0 0 0.25 0"/>
<feBlend mode="normal" in2="BackgroundImageFix" result="effect1_dropShadow_101_2"/>
<feBlend mode="normal" in="SourceGraphic" in2="effect1_dropShadow_101_2" result="shape"/>
</filter>
</defs>
</svg>
